<svg width="1014" height="770" viewBox="0 0 1014 770" fill="none" xmlns="http://www.w3.org/2000/svg">
<g clip-path="url(#clip0)">
<path opacity="0.1" d="M1051.17 674.33C1024.61 729.14 970.65 765.79 914.75 789.96C869.994 809.184 822.684 821.809 774.3 827.44C765.033 828.54 755.737 829.393 746.41 830C722.578 831.553 698.669 831.527 674.84 829.92C660.507 828.967 646.223 827.443 631.99 825.35C582.534 818.135 534.318 804.095 488.72 783.63C475.56 777.703 462.667 771.233 450.04 764.22C428.95 752.531 408.743 739.316 389.58 724.68C385.34 721.44 381.153 718.13 377.02 714.75L375.32 713.36C372.07 710.68 368.85 707.94 365.58 705.28C360.145 700.727 354.375 696.589 348.32 692.9C347.91 692.66 347.5 692.42 347.08 692.19C345.96 691.54 344.82 690.93 343.66 690.35C341.27 689.145 338.82 688.064 336.32 687.11C324.77 682.71 312.4 681.11 299.86 681.38C297.78 681.38 295.7 681.52 293.61 681.66C290.69 681.86 287.76 682.16 284.84 682.54L283.76 682.69C274.455 684.007 265.255 685.982 256.23 688.6C242.29 692.6 228.6 697.6 214.82 702.11C208.97 704.04 203.11 705.88 197.2 707.53L195.9 707.89C187.495 710.254 178.938 712.045 170.29 713.25C150.638 715.763 130.677 714.155 111.68 708.53L111.02 708.34L109.8 707.98L108.13 707.46C105.33 706.58 102.553 705.617 99.8 704.57L98.1301 703.93C95.4634 702.903 92.8534 701.8 90.3 700.62L88.6301 699.86C85.9634 698.62 83.3534 697.31 80.8 695.93C79.88 695.45 78.97 694.93 78.07 694.44C75.35 692.92 72.6834 691.327 70.07 689.66C67.2967 687.893 64.5834 686.05 61.93 684.13C60.7034 683.25 59.49 682.347 58.29 681.42C51.3725 676.129 44.8947 670.287 38.92 663.95C38.59 663.62 38.28 663.28 37.97 662.95C36.38 661.23 34.82 659.48 33.31 657.69C32.75 657.03 32.19 656.37 31.64 655.69C29.8467 653.503 28.1167 651.267 26.45 648.98C26.2 648.65 25.96 648.31 25.72 647.98C18.8874 638.531 13.2229 628.29 8.85004 617.48C8.71004 617.15 8.58004 616.81 8.46004 616.48C7.12671 613.047 5.91004 609.557 4.81004 606.01C4.36004 604.53 3.93004 603.01 3.55004 601.53C3.42004 601.09 3.30004 600.64 3.19004 600.2C-2.32996 578.47 -2.95996 555.88 -2.95996 533.42C-2.95996 530.8 -2.95996 528.183 -2.95996 525.57C-2.79996 489.24 -2.23996 452.29 3.12004 416.46C3.12004 416.21 3.19004 415.96 3.23004 415.72C5.024 403.658 7.46418 391.701 10.54 379.9C13.7592 367.518 17.8734 355.386 22.85 343.6C35.18 314.6 53.1101 288.21 73.0201 263.75C97.0201 234.32 124.52 207.16 155.15 184.75C159.55 181.53 164.01 178.403 168.53 175.37L170.62 174C171.35 173.51 172.08 173 172.81 172.57C174.31 171.57 175.81 170.63 177.33 169.68L179.03 168.62L182.27 166.62L183.27 166.05L185 165.05L186.71 164.05C188.71 162.87 190.733 161.717 192.78 160.59C201.52 155.717 210.467 151.263 219.62 147.23C222.32 146.037 225.037 144.887 227.77 143.78C240.18 138.726 252.927 134.546 265.92 131.27C270.72 130.057 275.55 128.99 280.41 128.07C286.143 126.963 291.907 126.047 297.7 125.32C306.919 124.16 316.191 123.469 325.48 123.25C390.8 121.66 456.78 142.92 507.97 183.67C528.37 199.91 546.7 219.14 569.61 231.59C589.61 242.43 613.02 246.92 634.44 238.39C652.14 231.34 663.66 227.84 683.54 228.91C724.677 231.227 765.232 239.709 803.85 254.07C805.41 254.64 806.97 255.23 808.52 255.82C909.23 294.37 995.82 370.92 1040.8 469.29C1041.99 471.89 1043.14 474.51 1044.27 477.15C1071.1 539.8 1080.78 613.25 1051.17 674.33Z" fill="#6C63FF"/>
<path opacity="0.1" d="M197.17 328.39V707.55L195.87 707.91C187.464 710.274 178.908 712.065 170.26 713.27C150.607 715.782 130.647 714.175 111.65 708.55L110.99 708.36L109.77 708L108.1 707.48C105.3 706.6 102.523 705.637 99.7698 704.59L98.0998 703.95C95.4331 702.923 92.8231 701.82 90.2698 700.64L88.5998 699.88C85.9331 698.64 83.3231 697.33 80.7698 695.95C79.8498 695.47 78.9398 694.95 78.0398 694.46C75.3198 692.94 72.6531 691.347 70.0398 689.68C67.2664 687.913 64.5531 686.07 61.8998 684.15C60.6731 683.27 59.4598 682.367 58.2598 681.44C51.3422 676.149 44.8644 670.307 38.8898 663.97C38.5598 663.64 38.2498 663.3 37.9398 662.97C36.3498 661.25 34.7898 659.5 33.2798 657.71C32.7198 657.05 32.1598 656.39 31.6098 655.71C29.8164 653.523 28.0864 651.287 26.4198 649C26.1698 648.67 25.9298 648.33 25.6898 648C18.8571 638.551 13.1927 628.31 8.81977 617.5C8.67977 617.17 8.54977 616.83 8.42977 616.5C7.09643 613.067 5.87977 609.577 4.77977 606.03C4.32977 604.55 3.89976 603.03 3.51976 601.55C3.38976 601.11 3.26976 600.66 3.15976 600.22C-2.36024 578.49 -2.99023 555.9 -2.99023 533.44C-2.99023 530.82 -2.99023 528.203 -2.99023 525.59C-2.83023 489.26 -2.27024 452.31 3.08976 416.48C3.08976 416.23 3.15976 415.98 3.19976 415.74C4.99373 403.678 7.4339 391.721 10.5098 379.92H112.63V328.39H132.99V287H176.81V328.39H197.17Z" fill="#6C63FF"/>
<path opacity="0.1" d="M1051.17 674.33C1024.61 729.14 970.65 765.79 914.75 789.96C869.993 809.183 822.683 821.808 774.3 827.44C765.033 828.54 755.736 829.393 746.41 830C722.578 831.553 698.669 831.526 674.84 829.92C660.506 828.966 646.223 827.443 631.99 825.35C582.534 818.135 534.318 804.094 488.72 783.63C475.56 777.703 462.666 771.233 450.04 764.22C428.95 752.53 408.743 739.315 389.58 724.68C385.34 721.44 381.153 718.13 377.02 714.75L375.32 713.36C372.07 710.68 368.85 707.94 365.58 705.28C360.145 700.727 354.375 696.589 348.32 692.9C347.91 692.66 347.5 692.42 347.08 692.19C345.96 691.54 344.82 690.93 343.66 690.35C341.27 689.145 338.82 688.064 336.32 687.11V532H521.91V566.53H603.36V313.95H699.23V414.95H746.65V355.15H785.83V291.27H803.83V254.07C805.39 254.64 806.95 255.23 808.5 255.82V291.27H826.02V355.19H865.17V414.99H922.9V642.82H1014.66V477.13H1044.23C1071.1 539.8 1080.78 613.25 1051.17 674.33Z" fill="#6C63FF"/>
<path opacity="0.1" d="M674.86 351.96H632.01V394.81H674.86V351.96Z" fill="#6C63FF"/>
<path opacity="0.1" d="M674.86 440.78H632.01V483.63H674.86V440.78Z" fill="#6C63FF"/>
<path opacity="0.1" d="M674.86 529.61H632.01V572.46H674.86V529.61Z" fill="#6C63FF"/>
<path opacity="0.1" d="M674.86 618.44H632.01V661.29H674.86V618.44Z" fill="#6C63FF"/>
<path opacity="0.1" d="M674.86 707.26H632.01V750.11H674.86V707.26Z" fill="#6C63FF"/>
<path opacity="0.1" d="M500.44 587.38H350.45V606.79H500.44V587.38Z" fill="#6C63FF"/>
<path opacity="0.1" d="M500.44 646.33H350.45V665.74H500.44V646.33Z" fill="#6C63FF"/>
<path opacity="0.1" d="M500.44 705.28V724.68H389.6C385.36 721.44 381.173 718.13 377.04 714.75L375.34 713.36C372.09 710.68 368.87 707.94 365.6 705.28H500.44Z" fill="#6C63FF"/>
<path opacity="0.1" d="M500.44 764.22V783.63H488.74C475.58 777.704 462.687 771.234 450.06 764.22H500.44Z" fill="#6C63FF"/>
<path opacity="0.1" d="M774.32 467.99H746.43V495.88H774.32V467.99Z" fill="#6C63FF"/>
<path opacity="0.1" d="M170.32 338.01H142.43V365.9H170.32V338.01Z" fill="#6C63FF"/>
<path opacity="0.1" d="M170.32 402.81H142.43V430.7H170.32V402.81Z" fill="#6C63FF"/>
<path opacity="0.1" d="M170.32 467.6H142.43V495.49H170.32V467.6Z" fill="#6C63FF"/>
<path opacity="0.1" d="M170.32 532.4H142.43V560.29H170.32V532.4Z" fill="#6C63FF"/>
<path opacity="0.1" d="M170.32 597.2H142.43V625.09H170.32V597.2Z" fill="#6C63FF"/>
<path opacity="0.1" d="M170.32 661.99H142.43V689.88H170.32V661.99Z" fill="#6C63FF"/>
<path opacity="0.1" d="M880.81 467.99H852.92V495.88H880.81V467.99Z" fill="#6C63FF"/>
<path opacity="0.1" d="M774.32 536.79H746.43V564.68H774.32V536.79Z" fill="#6C63FF"/>
<path opacity="0.1" d="M880.81 536.79H852.92V564.68H880.81V536.79Z" fill="#6C63FF"/>
<path opacity="0.1" d="M774.32 605.6H746.43V633.49H774.32V605.6Z" fill="#6C63FF"/>
<path opacity="0.1" d="M880.81 605.6H852.92V633.49H880.81V605.6Z" fill="#6C63FF"/>
<path opacity="0.1" d="M774.32 674.41H746.43V702.3H774.32V674.41Z" fill="#6C63FF"/>
<path opacity="0.1" d="M880.81 674.41H852.92V702.3H880.81V674.41Z" fill="#6C63FF"/>
<path opacity="0.1" d="M774.32 743.21H746.43V771.1H774.32V743.21Z" fill="#6C63FF"/>
<path opacity="0.1" d="M880.81 743.21H852.92V771.1H880.81V743.21Z" fill="#6C63FF"/>
<path opacity="0.1" d="M3.1001 415.75V431.75H109.77V415.75H3.1001ZM12.6001 430.75H4.7701V416.75H12.6001V430.75ZM22.1001 430.75H14.2701V416.75H22.1001V430.75ZM31.6001 430.75H23.7701V416.75H31.6001V430.75ZM41.1001 430.75H33.2701V416.75H41.1001V430.75ZM50.6001 430.75H42.7701V416.75H50.6001V430.75ZM60.1001 430.75H52.2701V416.75H60.1001V430.75ZM69.6001 430.75H61.7701V416.75H69.6001V430.75ZM79.1001 430.75H71.2701V416.75H79.1001V430.75ZM88.6001 430.75H80.7701V416.75H88.6001V430.75ZM98.1001 430.75H90.2701V416.75H98.1001V430.75ZM108.1 430.75H99.7701V416.75H108.1V430.75Z" fill="#6C63FF"/>
<path opacity="0.1" d="M3.1001 462.21V478.16H109.77V462.21H3.1001ZM12.6001 477.16H4.7701V463.21H12.6001V477.16ZM22.1001 477.16H14.2701V463.21H22.1001V477.16ZM31.6001 477.16H23.7701V463.21H31.6001V477.16ZM41.1001 477.16H33.2701V463.21H41.1001V477.16ZM50.6001 477.16H42.7701V463.21H50.6001V477.16ZM60.1001 477.16H52.2701V463.21H60.1001V477.16ZM69.6001 477.16H61.7701V463.21H69.6001V477.16ZM79.1001 477.16H71.2701V463.21H79.1001V477.16ZM88.6001 477.16H80.7701V463.21H88.6001V477.16ZM98.1001 477.16H90.2701V463.21H98.1001V477.16ZM108.1 477.16H99.7701V463.21H108.1V477.16Z" fill="#6C63FF"/>
<path opacity="0.1" d="M3.1001 508.66V524.61H109.77V508.66H3.1001ZM12.6001 523.61H4.7701V509.66H12.6001V523.61ZM22.1001 523.61H14.2701V509.66H22.1001V523.61ZM31.6001 523.61H23.7701V509.66H31.6001V523.61ZM41.1001 523.61H33.2701V509.66H41.1001V523.61ZM50.6001 523.61H42.7701V509.66H50.6001V523.61ZM60.1001 523.61H52.2701V509.66H60.1001V523.61ZM69.6001 523.61H61.7701V509.66H69.6001V523.61ZM79.1001 523.61H71.2701V509.66H79.1001V523.61ZM88.6001 523.61H80.7701V509.66H88.6001V523.61ZM98.1001 523.61H90.2701V509.66H98.1001V523.61ZM108.1 523.61H99.7701V509.66H108.1V523.61Z" fill="#6C63FF"/>
<path opacity="0.1" d="M3.1001 555.07V571.07H109.77V555.07H3.1001ZM12.6001 570.07H4.7701V556.07H12.6001V570.07ZM22.1001 570.07H14.2701V556.07H22.1001V570.07ZM31.6001 570.07H23.7701V556.07H31.6001V570.07ZM41.1001 570.07H33.2701V556.07H41.1001V570.07ZM50.6001 570.07H42.7701V556.07H50.6001V570.07ZM60.1001 570.07H52.2701V556.07H60.1001V570.07ZM69.6001 570.07H61.7701V556.07H69.6001V570.07ZM79.1001 570.07H71.2701V556.07H79.1001V570.07ZM88.6001 570.07H80.7701V556.07H88.6001V570.07ZM98.1001 570.07H90.2701V556.07H98.1001V570.07ZM108.1 570.07H99.7701V556.07H108.1V570.07Z" fill="#6C63FF"/>
<path opacity="0.1" d="M3.50977 601.56C3.88977 603.06 4.31977 604.56 4.76977 606.04V602.56H12.5998V616.56H8.41977C8.53977 616.89 8.66977 617.23 8.80977 617.56H109.81V601.56H3.50977ZM22.0998 616.56H14.2698V602.56H22.0998V616.56ZM31.5998 616.56H23.7698V602.56H31.5998V616.56ZM41.0998 616.56H33.2698V602.56H41.0998V616.56ZM50.5998 616.56H42.7698V602.56H50.5998V616.56ZM60.0998 616.56H52.2698V602.56H60.0998V616.56ZM69.5998 616.56H61.7698V602.56H69.5998V616.56ZM79.0998 616.56H71.2698V602.56H79.0998V616.56ZM88.5998 616.56H80.7698V602.56H88.5998V616.56ZM98.0998 616.56H90.2698V602.56H98.0998V616.56ZM108.1 616.56H99.7698V602.56H108.1V616.56Z" fill="#6C63FF"/>
<path opacity="0.1" d="M25.6802 648.01C25.9202 648.34 26.1602 648.68 26.4102 649.01H31.6002V655.72C32.1502 656.39 32.7102 657.05 33.2702 657.72V649.02H41.1002V663.02H37.9302C38.2402 663.35 38.5502 663.69 38.8802 664.02H109.77V648.02L25.6802 648.01ZM50.6002 663.01H42.7702V649.01H50.6002V663.01ZM60.1002 663.01H52.2702V649.01H60.1002V663.01ZM69.6002 663.01H61.7702V649.01H69.6002V663.01ZM79.1002 663.01H71.2702V649.01H79.1002V663.01ZM88.6002 663.01H80.7702V649.01H88.6002V663.01ZM98.1002 663.01H90.2702V649.01H98.1002V663.01ZM108.1 663.01H99.7702V649.01H108.1V663.01Z" fill="#6C63FF"/>
<path opacity="0.1" d="M78.04 694.46C78.94 694.97 79.8501 695.46 80.7701 695.95V695.46H88.6V699.88L90.2701 700.64V695.46H98.1V703.95L99.7701 704.59V695.46H108.1V707.46L109.77 707.98V694.46H78.04Z" fill="#6C63FF"/>
<path opacity="0.1" d="M406.96 277.24C406.96 277.24 383.12 275.8 385.96 292.5C385.814 293.349 385.941 294.222 386.322 294.994C386.703 295.767 387.318 296.399 388.08 296.8C388.08 296.8 388.08 295.56 390.52 295.98C391.376 296.121 392.245 296.161 393.11 296.1C394.28 296.023 395.393 295.567 396.28 294.8V294.8C396.28 294.8 402.98 292.03 405.59 281.08C405.59 281.08 407.51 278.69 407.44 278.08L403.44 279.8C403.44 279.8 404.82 282.7 403.74 285.11C403.74 285.11 403.61 279.91 402.83 280.03C402.68 280.03 400.74 281.03 400.74 281.03C400.74 281.03 403.11 286.09 401.32 289.76C401.32 289.76 402 283.54 400.01 281.4L397.11 283.07C397.11 283.07 399.88 288.29 398 292.55C398 292.55 398.49 286.02 396.52 283.48L393.95 285.48C393.95 285.48 396.55 290.62 394.95 294.16C394.95 294.16 394.74 286.55 393.38 285.97C392.404 286.793 391.534 287.733 390.79 288.77C390.79 288.77 392.57 292.5 391.47 294.47C391.47 294.47 390.79 289.41 390.23 289.38C390.23 289.38 388 292.74 387.77 295.04C387.873 292.906 388.535 290.837 389.69 289.04C388.402 289.284 387.213 289.899 386.27 290.81C386.27 290.81 386.62 288.44 390.27 288.23C390.27 288.23 392.12 285.69 392.62 285.53C392.62 285.53 389.01 285.23 386.82 286.2C386.82 286.2 388.75 283.96 393.28 284.98L395.81 282.91C395.81 282.91 391.06 282.26 389.05 282.98C389.05 282.98 391.36 280.98 396.49 282.44L399.25 280.79C397.13 280.326 394.959 280.138 392.79 280.23C392.79 280.23 395.33 278.86 400.06 280.35L402.06 279.46C402.06 279.46 399.06 278.88 398.23 278.79C397.4 278.7 397.31 278.46 397.31 278.46C399.188 278.147 401.117 278.362 402.88 279.08C402.88 279.08 407.03 277.5 406.96 277.24Z" fill="#6C63FF"/>
<path opacity="0.1" d="M344.38 358.51C344.38 358.51 336.23 380.95 353.05 383C353.82 383.379 354.69 383.505 355.536 383.359C356.382 383.214 357.16 382.804 357.76 382.19C357.76 382.19 356.59 381.8 357.67 379.61C358.048 378.832 358.337 378.013 358.53 377.17C358.783 376.024 358.656 374.828 358.17 373.76V373.76C358.17 373.76 357.42 366.55 347.66 360.94C347.66 360.94 345.92 358.41 345.31 358.31L345.81 362.66C345.81 362.66 348.98 362.16 350.99 363.88C350.99 363.88 345.99 362.53 345.86 363.31C345.86 363.46 346.23 365.6 346.23 365.6C346.23 365.6 351.75 364.76 354.76 367.52C354.76 367.52 348.98 365.1 346.37 366.41L347.15 369.59C347.15 369.59 352.94 368.43 356.49 371.43C356.49 371.43 350.37 369.12 347.37 370.28L348.56 373.28C348.56 373.28 354.23 372.28 357.17 374.77C357.17 374.77 349.81 372.77 348.88 373.95C349.392 375.114 350.043 376.212 350.82 377.22C350.82 377.22 354.91 376.58 356.48 378.22C356.48 378.22 351.43 377.43 351.25 377.95C351.25 377.95 353.84 381.05 355.98 381.95C353.97 381.239 352.181 380.015 350.79 378.4C350.657 379.708 350.911 381.025 351.52 382.19C351.52 382.19 349.34 381.19 350.17 377.64C350.17 377.64 348.25 375.15 348.25 374.64C348.25 374.64 346.93 378.01 347.25 380.39C347.25 380.39 345.65 377.9 347.91 373.85L346.65 370.85C346.65 370.85 344.65 375.22 344.79 377.36C344.79 377.36 343.55 374.57 346.39 370.06L345.6 366.95C344.553 368.839 343.757 370.856 343.23 372.95C343.23 372.95 342.63 370.12 345.4 366.01L345.11 363.87C345.11 363.87 343.71 366.55 343.38 367.36C343.05 368.17 342.8 368.14 342.8 368.14C343.03 366.249 343.781 364.459 344.97 362.97C344.97 362.97 344.65 358.51 344.38 358.51Z" fill="#6C63FF"/>
<path opacity="0.1" d="M502.41 339.59C502.41 339.59 494.27 362.07 511.08 364.07C511.852 364.448 512.725 364.573 513.573 364.426C514.421 364.278 515.2 363.867 515.8 363.25C515.8 363.25 514.62 362.86 515.71 360.68C516.091 359.901 516.377 359.078 516.56 358.23C516.816 357.085 516.693 355.889 516.21 354.82C516.21 354.82 515.46 347.61 505.7 342C505.7 342 503.95 339.48 503.34 339.38L503.85 343.72C503.85 343.72 507.02 343.23 509.03 344.95C509.03 344.95 504.03 343.6 503.89 344.37C503.89 344.53 504.26 346.66 504.26 346.66C504.26 346.66 509.78 345.83 512.8 348.58C512.8 348.58 507.02 346.17 504.4 347.47L505.19 350.66C505.19 350.66 510.98 349.49 514.53 352.5C514.53 352.5 508.4 350.18 505.4 351.34L506.59 354.34C506.59 354.34 512.26 353.34 515.2 355.83C515.2 355.83 507.85 353.83 506.91 355.02C507.438 356.189 508.11 357.287 508.91 358.29C508.91 358.29 512.99 357.64 514.57 359.29C514.57 359.29 509.52 358.5 509.34 359.03C509.34 359.03 511.92 362.12 514.06 363.03C512.051 362.322 510.265 361.097 508.88 359.48C508.747 360.786 508.997 362.103 509.6 363.27C509.6 363.27 507.43 362.27 508.26 358.73C508.26 358.73 506.34 356.23 506.33 355.73C506.33 355.73 505.02 359.11 505.33 361.48C505.33 361.48 503.73 359 505.99 354.94L504.73 351.94C504.73 351.94 502.73 356.31 502.87 358.44C502.87 358.44 501.63 355.66 504.47 351.15L503.67 348.03C502.623 349.919 501.827 351.936 501.3 354.03C501.3 354.03 500.71 351.2 503.48 347.09L503.19 344.95C503.19 344.95 501.79 347.63 501.45 348.44C501.11 349.25 500.87 349.22 500.87 349.22C501.107 347.329 501.861 345.54 503.05 344.05C503.05 344.05 502.69 339.6 502.41 339.59Z" fill="#6C63FF"/>
<path opacity="0.1" d="M276.51 523.07C276.51 523.07 268.36 545.52 285.18 547.57C285.951 547.949 286.822 548.074 287.669 547.927C288.515 547.779 289.293 547.367 289.89 546.75C289.89 546.75 288.72 546.36 289.8 544.18C290.185 543.401 290.473 542.578 290.66 541.73C290.918 540.585 290.792 539.386 290.3 538.32V538.32C290.3 538.32 289.55 531.11 279.79 525.51C279.79 525.51 278.05 522.98 277.44 522.88L277.94 527.22C277.94 527.22 281.12 526.73 283.12 528.45C283.12 528.45 278.12 527.1 277.99 527.87C277.99 528.03 278.36 530.16 278.36 530.16C278.36 530.16 283.88 529.33 286.89 532.08C286.89 532.08 281.11 529.67 278.5 530.97L279.28 534.16C279.28 534.16 285.07 532.99 288.62 536C288.62 536 282.5 533.68 279.5 534.84L280.69 537.84C280.69 537.84 286.36 536.84 289.3 539.33C289.3 539.33 281.95 537.33 281.01 538.52C281.522 539.684 282.174 540.782 282.95 541.79C282.95 541.79 287.04 541.14 288.62 542.79C288.62 542.79 283.56 542 283.38 542.53C283.38 542.53 285.97 545.62 288.11 546.53C286.1 545.824 284.311 544.604 282.92 542.99C282.788 544.294 283.042 545.609 283.65 546.77C283.65 546.77 281.47 545.77 282.3 542.23C282.3 542.23 280.39 539.73 280.38 539.23C280.38 539.23 279.06 542.61 279.38 544.98C279.38 544.98 277.78 542.5 280.04 538.44L278.78 535.44C278.78 535.44 276.78 539.81 276.93 541.94C276.93 541.94 275.69 539.16 278.53 534.65L277.73 531.54C276.682 533.428 275.885 535.445 275.36 537.54C275.36 537.54 274.76 534.7 277.53 530.6L277.24 528.45C277.24 528.45 275.84 531.13 275.51 531.94C275.18 532.75 274.93 532.72 274.93 532.72C275.161 530.827 275.916 529.037 277.11 527.55C277.11 527.55 276.78 523.07 276.51 523.07Z" fill="#6C63FF"/>
<path opacity="0.1" d="M244.17 311.48C244.17 311.48 236.03 333.92 252.84 335.97C253.612 336.348 254.484 336.473 255.331 336.328C256.178 336.182 256.958 335.774 257.56 335.16C257.56 335.16 256.38 334.77 257.47 332.58C257.847 331.799 258.132 330.977 258.32 330.13C258.576 328.989 258.453 327.795 257.97 326.73C257.97 326.73 257.22 319.52 247.45 313.91C247.45 313.91 245.71 311.38 245.1 311.28L245.61 315.63C245.61 315.63 248.78 315.13 250.78 316.85C250.78 316.85 245.78 315.5 245.65 316.28C245.65 316.43 246.02 318.57 246.02 318.57C246.02 318.57 251.54 317.73 254.56 320.49C254.56 320.49 248.78 318.07 246.16 319.38L246.94 322.56C246.94 322.56 252.73 321.39 256.29 324.4C256.29 324.4 250.16 322.08 247.16 323.25L248.35 326.25C248.35 326.25 254.02 325.25 256.96 327.75C256.96 327.75 249.61 325.75 248.67 326.93C249.182 328.094 249.834 329.192 250.61 330.2C250.61 330.2 254.7 329.56 256.28 331.2C256.28 331.2 251.23 330.41 251.05 330.93C251.05 330.93 253.63 334.03 255.77 334.93C253.762 334.216 251.973 332.993 250.58 331.38C250.448 332.687 250.701 334.005 251.31 335.17C251.31 335.17 249.13 334.17 249.97 330.62C249.97 330.62 248.05 328.13 248.04 327.62C248.04 327.62 246.73 330.99 247.04 333.37C247.04 333.37 245.43 330.88 247.7 326.83L246.43 323.83C246.43 323.83 244.43 328.2 244.58 330.34C244.58 330.34 243.34 327.55 246.18 323.04L245.38 319.93C244.333 321.819 243.537 323.836 243.01 325.93C243.01 325.93 242.42 323.1 245.18 318.99L244.9 316.85C244.9 316.85 243.49 319.53 243.16 320.33C242.83 321.13 242.58 321.12 242.58 321.12C242.811 319.227 243.566 317.437 244.76 315.95C244.76 315.95 244.45 311.48 244.17 311.48Z" fill="#6C63FF"/>
<path opacity="0.1" d="M304.61 433.68C304.61 433.68 310.9 456.68 325.82 448.68C326.668 448.545 327.451 448.145 328.058 447.538C328.665 446.931 329.065 446.148 329.2 445.3C329.2 445.3 328.02 445.66 327.65 443.25C327.509 442.394 327.267 441.559 326.93 440.76C326.487 439.674 325.695 438.767 324.68 438.18C324.68 438.18 319.91 432.72 308.68 433.76C308.68 433.76 305.8 432.71 305.24 432.98L308.16 436.23C308.16 436.23 310.47 434 313.1 434.23C313.1 434.23 308.21 436.03 308.57 436.72C308.65 436.86 310.19 438.38 310.19 438.38C310.19 438.38 314.19 434.51 318.27 435.02C318.27 435.02 312.16 436.38 310.78 438.96L313.25 441.11C313.25 441.11 317.31 436.82 321.95 437.22C321.95 437.22 315.6 438.86 313.82 441.54L316.54 443.33C316.54 443.33 320.54 439.22 324.44 439.59C324.44 439.59 317.3 442.22 317.19 443.7C318.282 444.357 319.451 444.877 320.67 445.25C320.67 445.25 323.67 442.37 325.86 442.78C325.86 442.78 321.27 445.05 321.43 445.58C321.43 445.58 325.33 446.58 327.58 446.1C325.531 446.681 323.366 446.715 321.3 446.2C321.943 447.344 322.91 448.273 324.08 448.87C324.08 448.87 321.72 449.3 320.36 445.93C320.36 445.93 317.36 445 317.04 444.58C317.04 444.58 317.92 448.1 319.54 449.86C319.54 449.86 316.8 448.75 316.31 444.13L313.54 442.4C313.54 442.4 314.45 447.11 315.77 448.78C315.77 448.78 313.15 447.22 312.87 441.9L310.43 439.82C310.667 441.978 311.185 444.096 311.97 446.12C311.97 446.12 309.86 444.12 309.75 439.2L308.28 437.61C308.28 437.61 308.68 440.61 308.87 441.46C309.06 442.31 308.87 442.46 308.87 442.46C307.969 440.78 307.554 438.883 307.67 436.98C307.67 436.98 304.84 433.53 304.61 433.68Z" fill="#6C63FF"/>
<path opacity="0.1" d="M475.25 454.22C475.25 454.22 481.54 477.22 496.45 469.22C497.3 469.088 498.087 468.69 498.696 468.083C499.305 467.475 499.706 466.69 499.84 465.84C499.84 465.84 498.65 466.2 498.28 463.84C498.147 462.984 497.908 462.147 497.57 461.35C497.12 460.266 496.326 459.359 495.31 458.77V458.77C495.31 458.77 490.54 453.31 479.31 454.36C479.31 454.36 476.43 453.3 475.88 453.57L478.79 456.82C478.79 456.82 481.1 454.59 483.73 454.82C483.73 454.82 478.84 456.62 479.21 457.31C479.28 457.45 480.83 458.97 480.83 458.97C480.83 458.97 484.83 455.1 488.91 455.61C488.91 455.61 482.79 456.97 481.41 459.55L483.89 461.7C483.89 461.7 487.89 457.41 492.58 457.81C492.58 457.81 486.24 459.45 484.46 462.13L487.18 463.92C487.18 463.92 491.18 459.81 495.07 460.18C495.07 460.18 487.93 462.81 487.83 464.29C488.919 464.947 490.084 465.468 491.3 465.84C491.3 465.84 494.3 462.96 496.49 463.37C496.49 463.37 491.91 465.64 492.06 466.17C492.06 466.17 495.96 467.17 498.22 466.69C496.168 467.27 494 467.305 491.93 466.79C492.577 467.932 493.543 468.86 494.71 469.46C494.71 469.46 492.35 469.89 490.99 466.52C490.99 466.52 487.99 465.59 487.68 465.17C487.68 465.17 488.55 468.69 490.17 470.45C490.17 470.45 487.43 469.34 486.94 464.72L484.17 462.97C484.17 462.97 485.08 467.68 486.41 469.35C486.41 469.35 483.79 467.79 483.51 462.47L481.06 460.39C481.297 462.549 481.818 464.667 482.61 466.69C482.61 466.69 480.49 464.69 480.38 459.77L478.91 458.18C478.91 458.18 479.31 461.18 479.5 462.03C479.69 462.88 479.5 463.03 479.5 463.03C478.599 461.35 478.184 459.453 478.3 457.55C478.3 457.55 475.48 454.07 475.25 454.22Z" fill="#6C63FF"/>
<path d="M411.23 685.2C411.23 685.2 463.11 667.73 452.37 605.83L386.47 588.72L371.17 639.51L411.23 685.2Z" fill="#CED7E7"/>
<path opacity="0.1" d="M371.17 639.51L411.22 685.2C411.22 685.2 463.1 667.73 452.36 605.83L371.17 639.51Z" fill="black"/>
<path d="M153.17 182.21C153.17 182.21 160.17 193.6 169.74 187.91C179.31 182.22 170.13 166.5 170.13 166.5C170.13 166.5 151.8 163.99 153.17 182.21Z" fill="#FED253"/>
<path opacity="0.1" d="M169.74 187.91C168.611 188.64 167.345 189.132 166.019 189.356C164.694 189.58 163.336 189.53 162.03 189.21C158.52 188.32 155.82 185.62 154.37 183.85C153.938 183.331 153.537 182.787 153.17 182.22C152.68 175.72 154.7 171.85 157.5 169.57C161.35 166.44 166.68 166.31 168.98 166.41C169.69 166.41 170.1 166.51 170.1 166.51L170.29 166.83C170.56 167.34 171.15 168.47 171.78 169.98C173.92 174.93 176.47 183.9 169.74 187.91Z" fill="black"/>
<path d="M416.33 602.92L452.33 605.83L519.33 606.38L466.54 671.38C466.54 671.38 449.79 672.29 446.34 674.65C442.89 677.01 394.45 675.75 394.45 675.75L386.63 642.43L416.33 602.92Z" fill="#FFA2A2"/>
<path opacity="0.05" d="M416.33 602.92L452.33 605.83L519.33 606.38L466.54 671.38C466.54 671.38 449.79 672.29 446.34 674.65C442.89 677.01 394.45 675.75 394.45 675.75L386.63 642.43L416.33 602.92Z" fill="black"/>
<path d="M379.92 428.16L388.29 442.36L390.11 467.12C390.11 467.12 395.94 488.23 400.31 494.42C404.68 500.61 406.5 517 406.5 517C406.5 517 408.32 532.29 410.5 535.56C412.68 538.83 415.6 562.56 415.6 562.56C415.6 562.56 434.9 601.15 452.37 605.88C452.37 605.88 365.72 634.28 411.23 685.25C411.23 685.25 378.83 693.25 371.18 684.16C363.53 675.07 343.51 540.35 343.51 540.35L349.7 426.75L379.92 428.16Z" fill="#CED7E7"/>
<path opacity="0.05" d="M379.92 428.16L388.29 442.36L390.11 467.12C390.11 467.12 395.94 488.23 400.31 494.42C404.68 500.61 406.5 517 406.5 517C406.5 517 408.32 532.29 410.5 535.56C412.68 538.83 415.6 562.56 415.6 562.56C415.6 562.56 434.9 601.15 452.37 605.88C452.37 605.88 365.72 634.28 411.23 685.25C411.23 685.25 378.83 693.25 371.18 684.16C363.53 675.07 343.51 540.35 343.51 540.35L349.7 426.75L379.92 428.16Z" fill="black"/>
<path d="M274.79 289.77C272.359 302.384 273.08 315.402 276.89 327.67L263.41 366.26C263.41 366.26 160.74 309.1 169.48 295.26C174.43 287.41 175.06 266.64 174.66 250.14C174.37 237.6 173.48 227.54 173.48 227.54C173.48 227.54 299.48 239.93 282.71 268.69C278.915 275.227 276.238 282.351 274.79 289.77V289.77Z" fill="#FFA2A2"/>
<path opacity="0.1" d="M282.71 268.69C278.915 275.227 276.238 282.351 274.79 289.77C256.091 295.752 235.898 295.073 217.643 287.848C199.389 280.623 184.2 267.299 174.66 250.14C174.37 237.6 173.48 227.54 173.48 227.54C173.48 227.54 299.45 239.93 282.71 268.69Z" fill="black"/>
<path d="M333.68 206.79C333.689 220.139 330.547 233.301 324.512 245.207C318.476 257.113 309.716 267.427 298.943 275.31C288.171 283.194 275.69 288.424 262.516 290.575C249.342 292.727 235.846 291.74 223.125 287.694C210.405 283.648 198.818 276.658 189.307 267.291C179.797 257.924 172.631 246.445 168.392 233.787C164.153 221.13 162.96 207.65 164.911 194.445C166.862 181.24 171.902 168.681 179.62 157.79C180.82 156.103 182.083 154.456 183.41 152.85C190.969 143.662 200.376 136.167 211.02 130.85V130.85C216.795 127.961 222.886 125.753 229.17 124.27C240.518 121.582 252.297 121.257 263.775 123.316C275.253 125.376 286.185 129.775 295.89 136.24C305.596 142.706 313.867 151.099 320.189 160.898C326.511 170.697 330.749 181.693 332.64 193.2C333.346 197.695 333.694 202.239 333.68 206.79Z" fill="#FFA2A2"/>
<path d="M367.17 555.6C365.9 562.38 367.49 574.77 369.9 587.38C370 587.93 370.11 588.48 370.22 589.03C370.33 589.58 370.49 590.43 370.63 591.12C371.74 596.54 372.95 601.91 374.13 606.79C375.31 611.67 376.37 615.85 377.27 619.29C378.63 624.44 379.56 627.68 379.56 627.68C379.56 627.68 379.68 630.86 379.84 635.92C379.93 638.84 380.03 642.4 380.13 646.33C380.13 647.47 380.2 648.63 380.23 649.83C380.28 651.92 380.33 654.09 380.38 656.31C380.38 657.03 380.38 657.75 380.43 658.48C380.43 660.87 380.52 663.31 380.56 665.74C380.61 669.08 380.65 672.42 380.67 675.66C380.67 676.9 380.67 678.12 380.67 679.32C380.67 682.42 380.67 685.39 380.67 688.12C380.56 695.87 380.25 701.72 379.59 703.41C379.36 703.99 379.15 704.62 378.95 705.28C378.083 708.384 377.454 711.55 377.07 714.75L375.37 713.36C372.12 710.68 368.9 707.94 365.63 705.28C360.195 700.727 354.425 696.589 348.37 692.9C347.96 692.66 347.55 692.42 347.13 692.19C346.01 691.54 344.87 690.93 343.71 690.35C341.32 689.145 338.87 688.064 336.37 687.11C324.82 682.71 312.45 681.11 299.91 681.38C294.91 683.29 291.66 684.66 291.66 684.66L285.3 686.58L284.24 686.9C277.35 689 267.66 691.98 264.17 693.22C258.53 695.22 209.56 705.41 209.56 705.41C205.086 706.631 200.516 707.467 195.9 707.91C187.494 710.274 178.938 712.065 170.29 713.27C150.637 715.782 130.677 714.175 111.68 708.55C111.113 708.584 110.544 708.567 109.98 708.5C110.33 708.5 110.67 708.42 110.98 708.36L109.76 708L108.09 707.48C105.29 706.6 102.513 705.636 99.76 704.59L98.09 703.95C95.4233 702.923 92.8133 701.82 90.26 700.64L88.59 699.88C85.9233 698.64 83.3133 697.33 80.76 695.95C79.84 695.47 78.93 694.95 78.03 694.46C75.31 692.94 72.6433 691.346 70.03 689.68C69.59 685.91 69.36 683.39 69.36 683.39L65.46 663.97L65.26 662.97L62.46 648.97L62.26 647.97L56.17 617.51L55.97 616.51L53.17 602.51L52.97 601.51L46.8 571.07L46.6 570.07L43.8 556.07L43.6 555.07L37.48 524.57L37.28 523.57L34.48 509.62L34.28 508.62L33.17 503.12L31.5 494.79C31.5 494.79 26.17 487.17 20.17 478.16L19.5 477.16C17.79 474.63 16.03 472 14.32 469.42C13.75 468.57 13.2 467.73 12.65 466.9C11.8167 465.64 11.01 464.41 10.23 463.21L9.68998 462.38L9.57999 462.21C0.959987 448.87 6.72998 443.07 6.72998 443.07C6.72998 443.07 10.35 438.17 15.02 431.69C15.25 431.36 15.49 431.03 15.74 430.69C17.74 427.89 19.94 424.83 22.1 421.77L23.77 419.39C24.4 418.5 25.02 417.61 25.62 416.73C25.86 416.4 26.09 416.06 26.31 415.73C30.92 409.07 34.72 403.26 35.5 401.2C36.72 397.95 44.5 388.34 52.25 379.91C58.36 373.25 64.44 367.33 67.17 365.91C73.36 362.64 75.91 352.07 75.91 352.07C75.91 352.07 89.38 347.35 91.2 343.71C93.02 340.07 118.51 323.71 118.51 323.71C118.51 323.71 128.82 317.07 132.99 313.07C133.58 312.547 134.095 311.944 134.52 311.28C135.97 308.68 145.44 306.54 149.29 305.77C150.29 305.57 150.91 305.46 150.91 305.46C152.464 302.635 154.429 300.057 156.74 297.81C158.31 296.42 160.27 291.63 161.92 286.99C163.71 281.93 165.1 277.06 165.1 277.06C168.02 267.23 173.84 270.14 173.84 270.14C173.832 271.482 173.959 272.823 174.22 274.14C176.65 286.14 189.85 291.14 196.78 296.75C204.43 302.93 216.44 318.96 225.91 322.23C233.75 324.94 242.84 335.16 245.72 338.57L245.94 338.83C246.42 339.39 246.66 339.71 246.66 339.71C246.66 339.71 252.03 339.43 255.3 339.37H256.49C257.155 339.303 257.787 339.046 258.31 338.63C261.56 336.42 266.4 329.94 268.51 328.45C271.05 326.62 273.61 297.13 273.61 297.13L273.74 297.07C282.81 292.82 292.54 335.36 292.54 335.36C292.54 335.36 309.65 340.46 311.11 344.1C311.39 344.82 312.68 346.1 314.62 347.65C323.453 354.4 332.855 360.373 342.72 365.5C342.94 365.61 343.15 365.72 343.37 365.81C343.568 365.917 343.772 366.013 343.98 366.1C344.35 366.28 344.71 366.44 345.05 366.59C345.59 366.83 346.09 367.03 346.55 367.19L347.15 367.4C348.583 367.877 349.933 368.575 351.15 369.47C351.51 369.73 351.87 370 352.22 370.29C353.582 371.423 354.834 372.682 355.96 374.05C356.13 374.25 356.29 374.46 356.45 374.66C357.21 375.61 357.89 376.55 358.45 377.42C359.369 378.762 360.207 380.158 360.96 381.6C360.96 381.6 375.88 407.09 380.62 409.99C385.36 412.89 388.27 442.4 388.27 442.4L372.27 501.71C372.27 501.71 371.52 516.71 370.12 532.01C369.34 540.59 368.35 549.32 367.17 555.6Z" fill="#CED7E7"/>
<path d="M246.66 341.51C246.66 341.51 235.93 347.33 227.55 347.88C226.453 347.931 225.354 347.867 224.27 347.69C215.49 346.36 202.61 339.14 202.61 339.14L217.72 322.57L236.1 331.68L242.86 337.97L246.66 341.51Z" fill="#63667E"/>
<path opacity="0.1" d="M332.6 193.2C332.22 193.738 331.788 194.237 331.31 194.69C326.05 199.69 316.71 197.62 309.54 196.46C303.309 195.441 297.223 193.682 291.41 191.22C286.35 189.06 280.28 186.42 275.73 189.52C273.98 190.7 272.78 192.59 270.96 193.63C269.14 194.67 266.82 194.74 264.67 194.77C257.67 194.77 250.67 194.85 243.84 193.27C233.65 190.89 223.11 184.9 213.42 188.85C205.84 191.93 201.73 200.18 199.68 208.11C198.68 212 197.94 216.11 195.68 219.41C193.42 222.71 189.05 225.05 185.33 223.5C179.84 221.21 179.03 211.89 172.41 211.42C165.14 210.91 165.23 218.42 167.35 223.85C170.49 231.85 174.6 239.85 174.78 248.19C166.967 234.196 163.275 218.275 164.131 202.27C164.988 186.266 170.358 170.83 179.62 157.75C181.232 156.752 182.493 155.277 183.23 153.53C183.304 153.294 183.364 153.053 183.41 152.81C183.96 150.02 182.41 147.09 182.32 144.17C181.97 137.04 189.69 132.07 196.77 131.17C201.48 130.57 206.3 131.03 211.02 130.88C213.397 130.827 215.762 130.512 218.07 129.94C222.052 128.747 225.78 126.831 229.07 124.29C240.417 121.602 252.197 121.277 263.675 123.336C275.153 125.396 286.085 129.795 295.79 136.26C305.495 142.726 313.766 151.119 320.089 160.918C326.411 170.717 330.649 181.713 332.54 193.22L332.6 193.2Z" fill="black"/>
<path d="M334.31 187.31C333.812 189.288 332.773 191.088 331.31 192.51C326.05 197.51 316.71 195.43 309.54 194.27C303.309 193.273 297.222 191.527 291.41 189.07C286.35 186.92 280.28 184.28 275.73 187.38C273.98 188.56 272.78 190.45 270.96 191.49C269.14 192.53 266.82 192.6 264.67 192.62C257.67 192.67 250.67 192.71 243.84 191.13C233.65 188.74 223.11 182.76 213.42 186.7C205.84 189.78 201.73 198.04 199.68 205.97C198.68 209.86 197.94 213.97 195.68 217.26C193.42 220.55 189.05 222.91 185.33 221.36C179.84 219.07 179.03 209.75 172.41 209.28C165.14 208.77 165.23 216.28 167.35 221.71C171.07 231.18 176.13 240.6 174.47 250.64C172.82 250.64 170.09 250.58 168.47 250.54C169.73 248.39 167.33 245.83 164.94 245.1C162.55 244.37 159.76 244.38 157.94 242.64C156.12 240.9 156.11 238.21 156.3 235.8C156.715 230.649 157.975 225.601 160.03 220.86C161.34 217.86 163.03 214.61 162.03 211.47C161.43 210.047 160.707 208.678 159.87 207.38C157.79 203.38 158.28 198.38 160.06 194.25C160.82 192.49 161.37 190.83 162 189.25C162.796 187.004 163.947 184.9 165.41 183.02C167.7 180.17 169.94 175.88 167.41 173.23C166.77 172.56 168.05 172.1 167.64 171.23C167.568 171.081 167.517 170.923 167.49 170.76C167.373 169.706 167.627 168.645 168.21 167.76C168.328 167.53 168.458 167.306 168.6 167.09C168.715 166.861 168.846 166.641 168.99 166.43C171.205 162.733 174.147 159.524 177.64 157C179.81 155.43 182.35 153.92 183.21 151.38C184.21 148.38 182.45 145.19 182.3 142.02C181.95 134.89 189.67 129.92 196.75 129.02C203.83 128.12 211.17 129.61 218.07 127.78C227.86 125.2 234.74 116.56 243.63 111.71C248.494 109.109 253.887 107.655 259.398 107.457C264.91 107.26 270.393 108.324 275.43 110.57C285.81 115.31 293.64 124.89 304.48 128.49C308.32 129.77 312.48 130.28 315.94 132.4C319.94 134.86 322.37 139.16 324.45 143.4C327.62 149.83 328.26 156.29 330.45 163.1C332.19 168.5 334.6 175.56 334.8 181.78C334.913 183.637 334.747 185.501 334.31 187.31V187.31Z" fill="#896363"/>
<g opacity="0.1">
<path opacity="0.1" d="M168.71 174.78C168.87 174.14 168.886 173.472 168.756 172.826C168.626 172.179 168.354 171.569 167.96 171.04C168.22 171.82 167.09 172.27 167.71 172.92C168.204 173.439 168.549 174.082 168.71 174.78Z" fill="black"/>
<path opacity="0.1" d="M167.93 168.75C167.812 169.099 167.741 169.462 167.72 169.83C167.91 169.51 168.17 169.18 167.93 168.75Z" fill="black"/>
<path opacity="0.1" d="M331.59 190.07C326.32 195.07 316.99 193 309.8 191.83C303.573 190.828 297.492 189.071 291.69 186.6C286.62 184.44 280.56 181.8 276 184.9C274.26 186.08 273.06 187.97 271.23 189.01C269.4 190.05 267.09 190.12 264.94 190.14C257.94 190.14 250.94 190.23 244.1 188.64C233.92 186.26 223.38 180.29 213.69 184.22C206.11 187.31 202 195.56 199.95 203.49C198.95 207.38 198.22 211.49 195.95 214.79C193.68 218.09 189.31 220.43 185.6 218.89C180.11 216.59 179.3 207.28 172.68 206.81C167.51 206.44 166.07 210.14 166.42 214.25C166.72 211.11 168.42 208.69 172.68 208.99C179.3 209.46 180.11 218.78 185.6 221.07C189.31 222.62 193.69 220.29 195.95 216.97C198.21 213.65 198.95 209.56 199.95 205.68C202 197.75 206.11 189.49 213.69 186.41C223.38 182.47 233.92 188.41 244.1 190.83C250.9 192.42 257.96 192.37 264.94 192.32C267.09 192.32 269.36 192.26 271.23 191.2C273.1 190.14 274.23 188.27 276 187.08C280.56 183.99 286.62 186.63 291.69 188.78C297.493 191.25 303.574 193.009 309.8 194.02C316.99 195.18 326.32 197.27 331.59 192.25C334.45 189.52 335.31 185.57 335.12 181.25C334.96 184.68 333.96 187.79 331.59 190.07Z" fill="black"/>
<path opacity="0.1" d="M182.65 140.21C182.595 140.708 182.575 141.209 182.59 141.71C182.69 143.79 183.48 145.87 183.73 147.9C184.1 145.41 182.95 142.81 182.65 140.21Z" fill="black"/>
<path opacity="0.1" d="M162.33 211.16C162.412 211.459 162.476 211.763 162.52 212.07C162.682 211.038 162.617 209.984 162.33 208.98C161.734 207.551 161.011 206.179 160.17 204.88C159.419 203.401 158.973 201.785 158.86 200.13C158.657 202.519 159.11 204.919 160.17 207.07C161.013 208.365 161.736 209.734 162.33 211.16Z" fill="black"/>
<path opacity="0.1" d="M174.74 248.14L168.89 248.05C169.026 248.403 169.081 248.783 169.05 249.161C169.019 249.538 168.903 249.904 168.71 250.23C170.36 250.23 173.1 250.29 174.71 250.33C174.99 248.618 175.087 246.882 175 245.15C174.977 246.151 174.89 247.15 174.74 248.14Z" fill="black"/>
<path opacity="0.1" d="M165.17 242.61C162.78 241.89 160 241.88 158.22 240.13C157.172 238.984 156.581 237.493 156.56 235.94C156.41 238.24 156.56 240.72 158.22 242.32C160 244.07 162.78 244.08 165.17 244.8C165.948 245.026 166.671 245.409 167.295 245.925C167.919 246.441 168.431 247.079 168.8 247.8C169.81 245.73 167.49 243.3 165.17 242.61Z" fill="black"/>
</g>
<path opacity="0.1" d="M347.1 692.19C345.98 691.54 344.84 690.93 343.68 690.35C341.29 689.145 338.84 688.064 336.34 687.11C324.79 682.71 312.42 681.11 299.88 681.38C294.88 683.29 291.63 684.66 291.63 684.66L285.27 686.58L284.21 686.9C284.14 686.2 284.06 685.5 283.99 684.79C283.92 684.08 283.84 683.4 283.76 682.7C281.52 661.49 279.76 639.7 279.76 639.7V620.88V618.69L279.64 563.24L278.64 544.96L278.17 536.87L278.08 535.33L277.9 532.17L277.8 530.29C277.579 529.694 277.392 529.087 277.24 528.47C277.17 528.22 277.1 527.94 277.04 527.65C276.79 526.65 276.52 525.36 276.24 523.96C274.41 514.76 272.12 499.25 271.98 496.1C271.8 491.9 268.16 466.78 268.16 466.78C267.79 452.95 256.16 426.91 253.23 422C250.3 417.09 247.03 387.59 248.13 386C248.7 385.15 249.07 380.12 249.3 375.48C249.3 374.95 249.35 374.43 249.37 373.92C249.52 370.29 249.59 367.26 249.59 367.26L261.03 365L264.1 364.4L264.34 364.35L264.44 364.55C264.77 365.16 265.8 367.11 267.01 369.67C267.15 369.94 267.28 370.23 267.42 370.52C267.48 370.66 267.55 370.8 267.62 370.94C269.86 375.84 272.45 382.29 272.34 386C272.16 392.56 279.63 408.4 279.63 408.4C280.35 412.04 296.19 448.26 296.19 448.26C296.19 448.26 309.12 483.76 308.39 489.59C307.66 495.42 314.58 534.01 314.58 534.01L321.68 573.7C325.13 581.52 329.68 599.54 329.68 599.54L331.41 609.76L331.74 611.71L336.35 638.98L338.61 652.34C338.61 652.34 339.56 659.44 341 667.34C341.12 668.05 341.26 668.77 341.4 669.49C342.287 674.69 343.547 679.82 345.17 684.84C345.975 687.245 346.619 689.7 347.1 692.19V692.19Z" fill="black"/>
<path d="M348.34 692.9C347.93 692.66 347.52 692.42 347.1 692.19C345.98 691.54 344.84 690.93 343.68 690.35C341.29 689.145 338.84 688.064 336.34 687.11C324.79 682.71 312.42 681.11 299.88 681.38C294.88 683.29 291.63 684.66 291.63 684.66L285.27 686.58C285.19 685.88 285.12 685.18 285.04 684.47C284.96 683.76 284.9 683.19 284.84 682.55C282.6 661.39 280.84 639.7 280.84 639.7V620.7V618.51L280.72 563.2L279.72 545.74L279.52 542.12L279.38 539.67L279.2 536.43L279.02 533.14L278.89 530.77V530.25C278.89 530.2 278.89 530.14 278.82 530.08C278.63 529.54 278.4 528.72 278.15 527.68L278.03 527.18C277.98 526.95 277.92 526.7 277.87 526.45C275.99 517.92 273.23 499.53 273.08 496.08C272.9 491.88 269.26 466.76 269.26 466.76C268.89 452.93 257.26 426.89 254.33 421.98C251.4 417.07 248.14 387.57 249.23 385.98C249.86 384.98 250.23 378.91 250.47 373.9C250.47 373.5 250.47 373.11 250.47 372.74C250.6 369.65 250.65 367.24 250.65 367.24L261.29 365.14L263.99 364.61L264.41 364.53L265.41 364.33C265.41 364.33 266.72 366.75 268.29 370.08L268.49 370.5C270.78 375.44 273.49 382.16 273.41 385.98C273.23 392.54 280.7 408.38 280.7 408.38C281.42 412.02 297.26 448.24 297.26 448.24C297.26 448.24 310.19 483.74 309.46 489.57C308.73 495.4 315.65 533.99 315.65 533.99L322.75 573.68C326.2 581.5 330.75 599.52 330.75 599.52L332.36 609.04L332.69 610.97L336.32 632.49L339.67 652.32C339.67 652.32 340.67 659.39 342.05 667.32C342.18 668.04 342.31 668.76 342.45 669.49C343.336 674.714 344.595 679.867 346.22 684.91C347.106 687.522 347.815 690.192 348.34 692.9V692.9Z" fill="#63667E"/>
<path d="M339.32 179.31C339.32 179.31 335.5 184.23 332.05 184.23C328.6 184.23 315.17 183.68 308.17 181.5C301.17 179.32 266.85 177.67 266.85 177.67C266.85 177.67 218.25 177.85 216.61 176.21C214.97 174.57 186.39 165.83 183.48 166.38C182.87 166.5 181.38 166.76 179.39 167.09L177.11 167.46C173.66 168.01 169.35 168.65 165.41 169.12C160.54 169.69 156.26 169.98 154.9 169.48V165.29C154.9 165.29 160.54 157.09 160.9 154.74C161.26 152.39 166 118.32 178.38 106.13C183.494 96.3531 191.771 88.598 201.86 84.13C218.61 76.84 235.36 70.66 235.36 70.66L238.29 70.24L247.74 68.84C248.027 68.554 248.338 68.2931 248.67 68.06C251.29 66.06 259.23 61.71 269.58 71.06L271.41 73.98C271.41 73.98 303.26 81.44 318 107.47C332.74 133.5 333.48 158.99 334.57 170.64C334.57 170.64 333.84 173.92 335.3 175.19C335.828 175.657 336.332 176.151 336.81 176.67C336.94 176.8 337.07 176.93 337.19 177.07C337.61 177.49 338 177.93 338.32 178.29C338.358 178.318 338.392 178.352 338.42 178.39C338.498 178.485 338.581 178.575 338.67 178.66L339.32 179.31Z" fill="#FED253"/>
<path opacity="0.05" d="M339.32 179.31C339.32 179.31 335.5 184.23 332.05 184.23C328.6 184.23 315.17 183.68 308.17 181.5C301.17 179.32 266.85 177.67 266.85 177.67C266.85 177.67 218.25 177.85 216.61 176.21C214.97 174.57 186.39 165.83 183.48 166.38C182.87 166.5 181.38 166.76 179.39 167.09L178.87 163.89L178.74 163.1C178.74 163.1 233.9 151.27 270.67 157.47C307.44 163.67 334.57 170.57 334.57 170.57C334.57 170.57 333.84 173.85 335.3 175.12C335.829 175.587 336.333 176.081 336.81 176.6C336.94 176.73 337.07 176.86 337.19 177C337.61 177.42 338 177.86 338.32 178.22C338.358 178.248 338.392 178.282 338.42 178.32C338.499 178.415 338.582 178.505 338.67 178.59L339.32 179.31Z" fill="black"/>
<path opacity="0.1" d="M334.31 187.31C327.5 187.84 314.95 186.18 309.46 185.37C307.9 185.14 306.37 184.86 304.83 184.52C298.94 183.24 280.83 179.65 269.83 181.31C256.54 183.31 219.04 179.67 219.04 179.67C219.04 179.67 195.92 174.94 186.63 171.12C183.22 169.71 177.52 169.27 171.85 169.97C170.404 170.15 168.969 170.407 167.55 170.74C159.81 172.57 153.28 176.74 154.41 183.85C153.978 183.331 153.577 182.787 153.21 182.22C152.72 175.72 154.74 171.85 157.54 169.57L158.2 169.3C161.621 168.328 165.102 167.583 168.62 167.07C169.17 166.98 169.74 166.9 170.32 166.83C180.27 165.49 194.66 165.19 206.8 171.3C206.8 171.3 218.08 176.59 225.73 176.59C233.38 176.59 295.63 177.14 310.2 181.32C313.101 182.158 316.059 182.783 319.05 183.19C324.362 183.875 329.76 183.366 334.85 181.7C334.954 183.586 334.772 185.478 334.31 187.31V187.31Z" fill="black"/>
<path opacity="0.1" d="M339.32 179.31C339.32 179.31 335.5 184.23 332.05 184.23C328.6 184.23 315.17 183.68 308.17 181.5C301.17 179.32 266.85 177.67 266.85 177.67C266.85 177.67 218.25 177.85 216.61 176.21C214.97 174.57 186.39 165.83 183.48 166.38C182.87 166.5 181.38 166.76 179.39 167.09L177.11 167.46C173.15 167.44 169.208 167.999 165.41 169.12C160.54 169.69 156.26 169.98 154.9 169.48V168.65C155.948 168.041 157.042 167.513 158.17 167.07C164.918 165.18 171.867 164.099 178.87 163.85C187.6 163.53 197.81 164.55 206.78 169.07C206.78 169.07 218.06 174.36 225.71 174.36C233.36 174.36 295.61 174.9 310.18 179.09C313.082 179.92 316.039 180.542 319.03 180.95C325.592 181.777 332.256 180.82 338.32 178.18C338.358 178.208 338.392 178.242 338.42 178.28C338.498 178.375 338.582 178.465 338.67 178.55L339.32 179.31Z" fill="black"/>
<path d="M154.55 183.68C154.55 183.68 142.35 174.39 158.19 168.2C158.19 168.2 185.86 159.65 206.8 170.2C206.8 170.2 218.08 175.47 225.73 175.47C233.38 175.47 295.63 176.02 310.2 180.21C313.102 181.041 316.059 181.663 319.05 182.07C326.802 183.01 334.654 181.518 341.52 177.8C342.52 177.25 343.42 176.97 343.69 177.29C344.6 178.39 343.88 184.76 335.87 186.03C329.62 187.03 315.42 185.14 309.45 184.27C307.9 184.04 306.36 183.75 304.83 183.42C298.94 182.14 280.83 178.55 269.78 180.21C256.5 182.21 218.99 178.57 218.99 178.57C218.99 178.57 195.88 173.84 186.59 170.01C177.3 166.18 151.09 169.48 154.55 183.68Z" fill="#FED253"/>
<path opacity="0.1" d="M257.4 86.07C256.4 84.63 243.55 74.34 238.31 70.18L247.76 68.78C248.047 68.494 248.358 68.2331 248.69 68C255.56 75.21 257.4 86.07 257.4 86.07Z" fill="black"/>
<path opacity="0.1" d="M215.72 141.26L211.53 147.45L227.55 146.91L227.91 139.99L215.72 141.26Z" fill="black"/>
<path opacity="0.1" d="M313.47 148.73L315.29 154.37L325.49 156.01L321.12 149.27L313.47 148.73Z" fill="black"/>
<path opacity="0.1" d="M138.35 338.07C139.44 339.89 175.3 387.07 184.77 385.76C194.24 384.45 138.35 338.07 138.35 338.07Z" fill="black"/>
<path opacity="0.1" d="M258.5 381.19C258.5 381.19 267.24 389.57 265.96 392.84C264.68 396.11 258.5 381.19 258.5 381.19Z" fill="black"/>
<path opacity="0.1" d="M163.11 438.72C163.11 438.72 155.46 474.58 159.47 475.72C163.48 476.86 163.11 438.72 163.11 438.72Z" fill="black"/>
<path opacity="0.1" d="M261.41 577.98C262.68 581.62 273.24 605.29 275.61 606.56C277.98 607.83 261.41 577.98 261.41 577.98Z" fill="black"/>
<path opacity="0.1" d="M384.11 480.77C383.74 482.04 374.64 489.51 376.64 492.24C378.64 494.97 384.11 480.77 384.11 480.77Z" fill="black"/>
<path opacity="0.1" d="M313.47 547.21C313.29 548.13 311.47 567.21 314.93 570.88C318.39 574.55 313.47 547.21 313.47 547.21Z" fill="black"/>
<path opacity="0.1" d="M406.75 646.33C404.11 647.8 401.38 649.22 398.6 650.58C395.6 652.04 392.6 653.43 389.54 654.74C388.32 655.27 387.1 655.79 385.89 656.29C384.05 657.05 382.23 657.78 380.43 658.48C374.96 660.62 369.69 662.48 365 664.05C363.18 664.66 361.44 665.22 359.82 665.74C351.66 668.33 346.24 669.74 346.24 669.74C345.002 669.475 343.735 669.371 342.47 669.43C342.12 669.43 341.76 669.43 341.39 669.43C339.696 669.553 338.011 669.766 336.34 670.07C325.17 672.07 309.39 677.68 299.88 681.35C294.88 683.26 291.63 684.63 291.63 684.63L285.27 686.55L284.21 686.87C277.32 688.97 267.63 691.95 264.14 693.19C258.5 695.19 209.53 705.38 209.53 705.38C205.056 706.601 200.486 707.438 195.87 707.88C184.495 708.924 173.061 709.184 161.65 708.66C150.19 709.4 131.65 706.88 120.86 705.18L119.14 704.91C114.97 704.23 112.32 703.74 112.32 703.74L113.72 701.81L142.43 662.2L142.6 661.96L169.35 625.07L170.35 623.73L172.78 620.38C172.78 620.38 174.24 618.38 179.86 618.25C180.52 618.25 181.24 618.25 182.03 618.25C186.751 618.63 191.408 619.58 195.9 621.08L197.2 621.47C216.57 627.02 246.51 625.63 246.51 625.63C246.51 625.63 265.14 622.63 279.78 620.83L280.87 620.69C285.654 620.014 290.471 619.597 295.3 619.44C304.22 619.62 323.52 614.89 323.52 614.89C327.67 614 329.42 613.25 331.76 611.58C332.07 611.36 332.4 611.12 332.76 610.86C333.76 610.11 334.91 609.19 336.39 608.05C339.09 605.98 342.88 603.17 348.84 599.23C349.36 598.89 349.91 598.55 350.5 598.23C351.09 597.91 351.84 597.48 352.56 597.12C358.332 594.387 364.417 592.372 370.68 591.12C375.875 590.003 381.146 589.278 386.45 588.95H387.24C402.24 588.15 417.56 590.72 426.52 599.15C428.087 600.632 429.452 602.313 430.58 604.15C431.127 605.023 431.615 605.931 432.04 606.87C432.857 608.661 433.465 610.54 433.85 612.47C433.923 612.83 433.983 613.19 434.03 613.55C434.03 613.66 434.03 613.76 434.03 613.87C434.03 614.16 434.09 614.45 434.11 614.74C434.91 626.71 422.49 637.53 406.75 646.33Z" fill="black"/>
<path d="M112.32 701.59C112.32 701.59 144.72 707.59 161.65 706.5C161.65 706.5 192.78 708.14 209.53 703.23C209.53 703.23 258.53 693.03 264.14 691.03C269.75 689.03 291.63 682.47 291.63 682.47C291.63 682.47 334.23 664.63 346.24 667.54C346.24 667.54 440.54 643.15 433.8 610.2C427.06 577.25 367.54 584.72 348.8 597.09C330.06 609.46 332.8 610.75 323.5 612.75C323.5 612.75 304.2 617.48 295.28 617.3C286.36 617.12 246.49 623.49 246.49 623.49C246.49 623.49 215.18 624.95 195.89 618.94C176.6 612.93 172.77 618.21 172.77 618.21L112.32 701.59Z" fill="#FFA2A2"/>
<path opacity="0.1" d="M182.58 616.07C182.585 616.11 182.585 616.15 182.58 616.19C182.51 616.933 182.318 617.66 182.01 618.34C178.17 627.76 156.37 653.17 156.37 653.17C155.376 656.189 154.177 659.136 152.78 661.99C149.776 668.092 146.316 673.959 142.43 679.54C136.669 687.891 130.38 695.864 123.6 703.41H123.55C122.687 704.05 121.789 704.641 120.86 705.18C118.51 706.58 114.98 708.31 111.65 708.52C111.083 708.554 110.514 708.537 109.95 708.47C110.3 708.47 110.64 708.39 110.95 708.33L109.73 707.97L108.06 707.45C105.26 706.57 102.483 705.607 99.7301 704.56L98.0601 703.92C95.3935 702.894 92.7835 701.79 90.2301 700.61L88.5601 699.85C85.8935 698.61 83.2835 697.3 80.7301 695.92C79.8101 695.44 78.9001 694.92 78.0001 694.43C75.2801 692.91 72.6135 691.317 70.0001 689.65C67.2268 687.884 64.5135 686.04 61.8601 684.12C59.8601 680.41 58.2101 677.12 57.3101 675.35C55.6701 672.06 55.5301 667.35 55.7301 663.94C55.7301 663.59 55.7301 663.26 55.7901 662.94C55.9601 660.8 56.2201 659.33 56.2201 659.33C54.7384 657.349 53.4016 655.264 52.2201 653.09C51.5414 652.011 51.1554 650.774 51.1001 649.5C51.1454 648.989 51.0979 648.474 50.9601 647.98C50.1901 644.82 46.8801 639.39 43.8201 635.98C41.5401 633.47 41.4001 624.09 41.6201 617.44C41.7501 613.44 42.0001 610.5 42.0001 610.5C41.552 610.211 41.2167 609.777 41.0501 609.27C40.246 607.082 39.7023 604.806 39.4301 602.49C39.4301 602.16 39.3401 601.83 39.2901 601.49C38.6501 596.9 38.3601 592.29 38.3601 592.29C30.9601 586.9 27.4401 578.49 25.8001 570.99L25.5901 569.99C24.6895 565.381 24.3071 560.685 24.4501 555.99C24.4501 555.54 24.4501 555.2 24.4501 554.99C24.4501 554.78 24.4501 554.74 24.4501 554.74C24.4501 554.74 25.4301 533.07 28.1701 524.61C28.2801 524.25 28.4001 523.92 28.5201 523.61C28.722 523.079 28.9837 522.572 29.3001 522.1C30.3001 520.77 31.0101 518.26 31.6001 515.29C32.0101 513.23 32.3501 510.94 32.6001 508.66C32.8301 506.76 33.0101 504.87 33.1501 503.12C33.5401 498.44 33.6601 494.79 33.6601 494.79L31.8101 485.67C31.3001 483.18 30.9101 480.67 30.6401 478.16C30.6401 477.83 30.5601 477.5 30.5201 477.16C30.0524 472.525 29.9688 467.859 30.2701 463.21C30.2701 462.87 30.2701 462.54 30.3301 462.21C31.1109 451.621 33.8792 441.274 38.4901 431.71L38.9901 430.71C39.6568 429.377 40.3568 428.067 41.0901 426.78C41.6201 425.83 42.1801 424.89 42.7601 423.96C44.2977 421.47 45.9667 419.063 47.7601 416.75C48.0201 416.41 48.2901 416.08 48.5601 415.75C51.6805 411.882 55.1483 408.307 58.9201 405.07C69.0201 396.39 78.2901 392.62 86.7101 392.33C123.53 391.03 144.18 456.15 147.52 467.56C147.84 468.66 148 469.26 148 469.26C148 469.26 162.92 484.19 158.55 490.74C157.703 492.182 157.187 493.794 157.04 495.46C155.84 504.27 159.28 518.78 159.28 518.78C159.28 518.78 160.5 522.78 164.06 532.36L165.11 535.16C167.34 541.16 167.86 551.23 166.58 560.25C165.35 568.89 162.46 576.53 157.83 578.49C148.36 582.49 150.91 586.49 153.09 589.78C154.386 592.139 155.467 594.609 156.32 597.16C157.69 600.85 158.96 604.73 159.44 606.24C159.58 606.66 159.65 606.89 159.65 606.89C160.977 606.377 162.355 606.008 163.76 605.79C165.55 605.54 167.32 605.72 167.66 607.25C167.84 608.07 168.87 609.04 170.32 610.01C174.62 612.97 182.58 616.07 182.58 616.07Z" fill="black"/>
<path d="M180.4 616.07C180.339 616.831 180.146 617.575 179.83 618.27C176.01 627.7 154.19 653.17 154.19 653.17C153.192 656.187 151.993 659.134 150.6 661.99C148.187 666.918 145.458 671.684 142.43 676.26C136.161 685.716 129.217 694.706 121.65 703.16L121.42 703.41C121.42 703.41 120.54 704.08 119.14 704.94C116.639 706.537 113.882 707.693 110.99 708.36L109.77 708L108.1 707.48C105.3 706.6 102.523 705.637 99.7701 704.59L98.1001 703.95C95.4334 702.923 92.8234 701.82 90.2701 700.64L88.6001 699.88C85.9334 698.64 83.3234 697.33 80.7701 695.95C79.8501 695.47 78.9401 694.95 78.0401 694.46C75.3201 692.94 72.6534 691.347 70.0401 689.68C67.2668 687.913 64.5534 686.07 61.9001 684.15C60.6734 683.27 59.4601 682.367 58.2601 681.44C56.9101 678.88 55.8301 676.72 55.1601 675.38C53.5201 672.09 53.3801 667.38 53.5801 663.97C53.5801 663.62 53.5801 663.29 53.6401 662.97C53.8101 660.83 54.0701 659.36 54.0701 659.36C54.0701 659.36 53.2601 658.27 52.2801 656.79C51.7301 655.97 51.1401 655.02 50.6101 654.08C49.6101 652.32 48.8301 650.54 48.9801 649.53C49.0004 649.357 49.0004 649.183 48.9801 649.01C48.9651 648.672 48.9148 648.337 48.8301 648.01C48.0601 644.85 44.7401 639.42 41.6801 636.01C39.4001 633.5 39.2601 624.12 39.4701 617.47C39.4701 617.13 39.4701 616.8 39.4701 616.47C39.6101 613.02 39.8201 610.53 39.8201 610.53C38.6901 610.04 37.8201 606.41 37.2601 602.53L37.1101 601.53C36.4701 596.94 36.1801 592.33 36.1801 592.33C28.7801 586.94 25.2601 578.53 23.6301 571.03C22.4945 565.777 22.0574 560.397 22.3301 555.03C22.3301 554.87 22.3301 554.78 22.3301 554.78C22.3301 554.78 23.1901 533 25.9301 524.53C26.0401 524.17 26.1601 523.84 26.2801 523.53C26.5201 523.011 26.8187 522.521 27.1701 522.07C28.6901 519.95 29.7001 514.85 30.3601 509.63L30.4801 508.63C31.3101 501.63 31.5401 494.76 31.5401 494.76L29.6801 485.64C29.1734 483.14 28.7834 480.637 28.5101 478.13C28.4601 477.8 28.4301 477.46 28.3901 477.13C27.9225 472.495 27.8389 467.829 28.1401 463.18C28.1401 462.84 28.1401 462.51 28.2101 462.18C28.9862 451.59 31.7547 441.242 36.3701 431.68C36.5301 431.34 36.6901 431.01 36.8701 430.68C38.1559 428.083 39.5847 425.559 41.1501 423.12C41.6901 422.27 42.2401 421.43 42.8201 420.6C43.7301 419.28 44.6801 417.98 45.6701 416.72L46.4701 415.72C49.5638 411.866 53.0013 408.302 56.7401 405.07C67.7401 395.64 77.7401 392 86.7401 392.33C122.19 393.6 142.09 456.38 145.36 467.56C145.68 468.66 145.84 469.26 145.84 469.26C145.84 469.26 160.77 484.19 156.4 490.74C155.553 492.182 155.037 493.794 154.89 495.46C153.68 504.27 157.13 518.78 157.13 518.78C157.13 518.78 158.35 522.78 161.91 532.36C162.23 533.25 162.58 534.18 162.91 535.16C165.14 541.16 165.66 551.23 164.38 560.25C163.15 568.9 160.27 576.53 155.63 578.49C146.17 582.49 148.71 586.49 150.9 589.78C152.196 592.138 153.277 594.608 154.13 597.16C155.86 601.87 157.45 606.89 157.45 606.89C158.105 606.637 158.772 606.42 159.45 606.24C160.841 605.783 162.315 605.629 163.77 605.79C164.173 605.821 164.555 605.979 164.863 606.242C165.17 606.504 165.386 606.857 165.48 607.25C165.75 608.45 167.82 609.94 170.33 611.35C173.589 613.124 176.952 614.7 180.4 616.07V616.07Z" fill="#CED7E7"/>
<path opacity="0.1" d="M48.7798 519.91C52.2398 519.73 89.3798 505.35 97.0298 510.26C104.68 515.17 152.03 547.03 152.03 547.03C152.03 547.03 122.36 508.26 96.5098 499.16C70.6598 490.06 48.7798 519.91 48.7798 519.91Z" fill="black"/>
<path opacity="0.1" d="M102.17 578.53C102.17 578.53 139.31 585.99 144.95 591.09L102.17 578.53Z" fill="black"/>
<path opacity="0.1" d="M95.0202 634.07C94.4802 634.62 81.0202 664.83 82.1002 664.83C83.1802 664.83 94.6602 646.83 94.6602 646.83L95.0202 634.07Z" fill="black"/>
<path opacity="0.1" d="M120.33 597.82C120.33 597.82 109.41 601.65 110.68 602.01C111.95 602.37 119.96 599.46 120.33 597.82Z" fill="black"/>
<path opacity="0.1" d="M109.41 643.52C111.23 647.34 117.05 658.81 118.33 656.99C119.61 655.17 109.41 643.52 109.41 643.52Z" fill="black"/>
<path opacity="0.1" d="M245.73 340.74L244.17 342.96C244.17 342.96 231.78 334.23 226.69 329.86C221.6 325.49 209.58 345.51 200.11 350.97C190.64 356.43 174.63 357.89 174.63 357.89C174.63 357.89 162.25 345.51 162.63 341.89C163.01 338.27 156.81 337.16 156.44 334.61C156.07 332.06 153.89 324.78 150.98 321.14C149.44 319.22 149.22 313.21 149.36 307.98C150.36 307.78 150.98 307.67 150.98 307.67C152.534 304.846 154.499 302.268 156.81 300.02C160.09 297.11 165.18 279.27 165.18 279.27C168.09 269.44 173.91 272.35 173.91 272.35C173.91 287.28 189.21 292.74 196.85 298.93C204.49 305.12 216.51 321.14 225.98 324.42C233.75 327.07 242.84 337.32 245.73 340.74Z" fill="black"/>
<path d="M245.73 338.55L244.17 340.78C244.17 340.78 231.73 332.07 226.64 327.67C221.55 323.27 209.53 343.32 200.06 348.78C190.59 354.24 174.58 355.71 174.58 355.71C174.58 355.71 162.2 343.32 162.58 339.71C162.96 336.1 156.76 334.98 156.39 332.42C156.02 329.86 153.84 322.59 150.93 318.95C149.39 317.03 149.17 311.02 149.31 305.79L150.93 305.49C152.484 302.666 154.449 300.088 156.76 297.84C160.04 294.92 165.13 277.09 165.13 277.09C168.04 267.26 173.86 270.16 173.86 270.16C173.86 285.09 189.16 290.56 196.8 296.75C204.44 302.94 216.46 318.95 225.93 322.23C233.75 324.92 242.84 335.13 245.73 338.55Z" fill="#CED7E7"/>
<path opacity="0.1" d="M246.66 341.51C246.66 341.51 235.93 347.33 227.55 347.88C226.453 347.931 225.354 347.868 224.27 347.69C224.27 347.69 233.52 340.78 242.11 339.37L246.66 341.51Z" fill="black"/>
<path opacity="0.1" d="M268.51 371.18C268.51 371.18 254.98 365.91 250.51 373.84C250.66 370.2 250.72 367.18 250.72 367.18L265.47 364.26C265.47 364.26 266.89 366.89 268.55 370.43C268.51 370.9 268.51 371.18 268.51 371.18Z" fill="black"/>
<path d="M224.27 347.69C224.27 347.69 240.48 337.96 248.27 338.78C256.44 339.63 272.27 340.23 272.27 340.23C272.27 340.23 266.81 352.61 267.54 355.16C268.27 357.71 268.45 370.09 268.45 370.09C268.45 370.09 252.07 363.72 249.34 375.55C249.34 375.55 240.42 362.26 234.41 358.25C230.422 355.369 226.987 351.792 224.27 347.69Z" fill="#63667E"/>
<path opacity="0.1" d="M315.84 358.99C311.11 358.99 294.36 348.42 290.72 341.51C287.08 334.6 281.98 342.23 277.25 344.79C274.25 346.43 262.36 343 255.95 340.51C259.2 338.3 266.4 332.08 268.51 330.59C271.05 328.76 273.61 299.27 273.61 299.27C282.71 294.54 292.54 337.5 292.54 337.5C292.54 337.5 309.66 342.6 311.11 346.24C311.39 346.96 312.68 348.24 314.62 349.79C316.62 354.83 317.72 358.99 315.84 358.99Z" fill="black"/>
<path d="M315.84 356.8C311.11 356.8 294.36 346.24 290.72 339.33C287.08 332.42 281.98 340.05 277.25 342.6C274.25 344.24 264.72 341.07 258.31 338.6C261.56 336.4 266.4 329.92 268.51 328.42C271.05 326.6 273.61 297.11 273.61 297.11C282.71 292.38 292.54 335.34 292.54 335.34C292.54 335.34 309.66 340.44 311.11 344.08C311.39 344.8 312.68 346.08 314.62 347.63C316.62 352.64 317.72 356.8 315.84 356.8Z" fill="#CED7E7"/>
<path d="M380.53 675.77L538.84 543.77C540.42 542.436 542.433 541.724 544.5 541.77L603.56 543.32C603.56 543.32 607.65 546.32 601.65 552.88L452.31 675.43C450.696 676.749 448.693 677.501 446.61 677.57L382.03 679.71C381.566 679.725 381.109 679.594 380.723 679.337C380.337 679.08 380.041 678.708 379.876 678.275C379.711 677.841 379.685 677.367 379.802 676.918C379.92 676.469 380.174 676.068 380.53 675.77Z" fill="#6C63FF"/>
<path d="M457.11 659.53C457.11 659.53 491.69 709.05 530.11 662.99C568.53 616.93 557.42 592.73 545.77 591.45C534.12 590.17 468.57 640.6 457.11 659.53Z" fill="#FFA2A2"/>
<path opacity="0.1" d="M690.34 105.67C690.34 105.67 734.91 19.1702 787.59 63.7802C787.59 63.7802 799.09 67.9702 798.22 80.1302C798.22 80.1302 793.79 77.7002 790.27 86.9902C788.977 90.2865 787.299 93.4183 785.27 96.3202C782.573 100.24 778.679 103.181 774.17 104.7V104.7C774.17 104.7 750.53 122.41 706.74 108.75C706.74 108.75 694.36 110.53 692.36 108.99L706.75 98.4702C706.75 98.4702 714.06 109.32 724.75 110.56C724.75 110.56 706.75 99.2602 708.81 96.8102C709.23 96.3102 716.69 91.5802 716.69 91.5802C716.69 91.5802 729.48 110.39 746.06 111.78C746.06 111.78 722.83 101.19 719.5 89.7802L731.17 83.2702C731.17 83.2702 743.71 103.82 762.54 106.12C762.54 106.12 738.64 94.2102 733.82 82.0202L746.17 77.2002C746.17 77.2002 758.8 97.0002 774.47 98.8102C774.47 98.8102 748.25 82.2602 749.07 76.2802C749.07 76.2802 760.68 72.5402 764.24 73.0302C764.24 73.0302 773.63 87.0302 782.83 87.2802C782.83 87.2802 766.48 74.3602 767.56 72.3702C767.56 72.3702 783.98 71.5202 792.56 75.4902C792.56 75.4902 780.36 68.7002 767.56 69.8002C767.56 69.8002 773.35 62.9902 780.9 61.4902C780.9 61.4902 771.85 57.7702 763.58 70.0502C763.58 70.0502 750.81 71.2202 749.23 72.6402C749.23 72.6402 755.69 59.3602 763.64 53.7102C763.64 53.7102 751.79 55.8002 745.92 73.8002L733.4 78.3702C733.4 78.3702 741.01 60.3702 747.72 54.8102C747.72 54.8102 735.96 58.8102 730.34 79.8102L718.82 86.0702C718.82 86.0702 724.19 70.0702 730.32 62.2602C730.32 62.2602 720.21 68.3202 715.58 87.9802L708.38 93.0502C708.38 93.0502 712.51 81.4302 714 78.2002C715.49 74.9702 714.74 74.3002 714.74 74.3002C709.735 80.2174 706.47 87.4076 705.31 95.0702C705.31 95.0702 691.17 106.47 690.34 105.67Z" fill="#6C63FF"/>
<path opacity="0.1" d="M874.67 151.93C874.67 151.93 894.81 112.84 918.61 133C918.61 133 923.81 134.89 923.41 140.38C923.41 140.38 921.41 139.29 919.82 143.49C919.244 144.977 918.492 146.391 917.58 147.7C916.363 149.467 914.61 150.796 912.58 151.49V151.49C912.58 151.49 901.89 159.49 882.1 153.32C882.1 153.32 876.51 154.12 875.61 153.43L882.11 148.67C882.11 148.67 885.41 153.58 890.25 154.13C890.25 154.13 882.13 149.03 883.05 147.92C883.23 147.7 886.6 145.56 886.6 145.56C886.6 145.56 892.38 154.06 899.88 154.69C899.88 154.69 889.38 149.9 887.88 144.69L893.16 141.76C893.16 141.76 898.82 151.05 907.33 152.09C907.33 152.09 896.53 146.71 894.33 141.2L899.91 139.02C899.91 139.02 905.61 147.97 912.69 148.79C912.69 148.79 900.84 141.31 901.22 138.61C901.22 138.61 906.46 136.92 908.07 137.14C908.07 137.14 912.31 143.47 916.47 143.57C916.47 143.57 909.08 137.74 909.57 136.84C909.57 136.84 916.99 136.46 920.85 138.25C920.85 138.25 915.34 135.18 909.57 135.68C911.162 133.869 913.247 132.563 915.57 131.92C915.57 131.92 911.48 130.24 907.74 135.79C907.74 135.79 901.97 136.32 901.26 136.96C901.26 136.96 904.18 130.96 907.77 128.41C907.77 128.41 902.41 129.35 899.77 137.49L894.17 139.59C894.17 139.59 897.6 131.46 900.64 128.94C900.64 128.94 895.32 130.75 892.78 140.23L887.58 143.05C887.58 143.05 890 135.81 892.77 132.29C892.77 132.29 888.2 135.03 886.12 143.91L882.86 146.2C882.86 146.2 884.73 140.95 885.4 139.49C886.07 138.03 885.73 137.73 885.73 137.73C883.468 140.413 881.994 143.67 881.47 147.14C881.47 147.14 875.02 152.29 874.67 151.93Z" fill="#6C63FF"/>
<path opacity="0.1" d="M656.44 197.41C656.44 197.41 676.58 158.32 700.44 178.48C700.44 178.48 705.63 180.37 705.24 185.87C705.24 185.87 703.24 184.77 701.65 188.97C701.07 190.456 700.318 191.869 699.41 193.18C698.18 194.955 696.408 196.285 694.36 196.97V196.97C694.36 196.97 683.68 204.97 663.89 198.8C663.89 198.8 658.3 199.61 657.4 198.91L663.9 194.15C663.9 194.15 667.2 199.06 672.03 199.62C672.03 199.62 663.91 194.51 664.83 193.4C665.02 193.18 668.39 191.04 668.39 191.04C668.39 191.04 674.17 199.54 681.66 200.17C681.66 200.17 671.17 195.38 669.66 190.17L674.94 187.25C674.94 187.25 680.61 196.53 689.12 197.57C689.12 197.57 678.32 192.19 676.12 186.68L681.7 184.5C681.7 184.5 687.41 193.45 694.49 194.27C694.49 194.27 682.64 186.79 683.01 184.09C683.01 184.09 688.26 182.4 689.87 182.62C689.87 182.62 694.11 188.95 698.27 189.06C698.27 189.06 690.88 183.22 691.37 182.32C691.37 182.32 698.78 181.94 702.65 183.73C702.65 183.73 697.13 180.66 691.36 181.16C692.952 179.349 695.037 178.043 697.36 177.4C697.36 177.4 693.28 175.72 689.54 181.27C689.54 181.27 683.77 181.8 683.06 182.44C683.06 182.44 685.97 176.44 689.57 173.89C689.57 173.89 684.21 174.83 681.57 182.97L675.9 185.07C675.9 185.07 679.34 176.94 682.37 174.43C682.37 174.43 677.06 176.23 674.52 185.71L669.31 188.53C669.31 188.53 671.74 181.29 674.51 177.77C674.51 177.77 669.94 180.51 667.85 189.39L664.59 191.68C664.59 191.68 666.46 186.43 667.13 184.97C667.8 183.51 667.47 183.21 667.47 183.21C665.204 185.89 663.729 189.148 663.21 192.62C663.21 192.62 656.79 197.77 656.44 197.41Z" fill="#6C63FF"/>
</g>
<defs>
<clipPath id="clip0">
<rect width="1013.58" height="769.76" fill="white"/>
</clipPath>
</defs>
</svg>
