<svg width="1146" height="771" viewBox="0 0 1146 771" fill="none" xmlns="http://www.w3.org/2000/svg">
<g clip-path="url(#clip0)">
<path d="M683.132 193.933H679.151V85.0302C679.151 76.753 677.518 68.5567 674.346 60.9096C671.173 53.2624 666.524 46.3139 660.662 40.461C654.8 34.6081 647.842 29.9654 640.183 26.7978C632.524 23.6303 624.316 22 616.026 22H384.956C376.666 22 368.458 23.6303 360.799 26.7978C353.141 29.9654 346.182 34.6082 340.32 40.4611C334.459 46.314 329.809 53.2624 326.637 60.9096C323.464 68.5567 321.832 76.753 321.832 85.0302V682.481C321.832 690.758 323.464 698.955 326.637 706.602C329.809 714.249 334.459 721.197 340.32 727.05C346.182 732.903 353.141 737.546 360.799 740.713C368.458 743.881 376.666 745.511 384.956 745.511H616.026C624.316 745.511 632.524 743.881 640.183 740.713C647.842 737.546 654.8 732.903 660.662 727.05C666.524 721.197 671.173 714.249 674.346 706.602C677.518 698.955 679.151 690.758 679.151 682.481V271.452H683.132L683.132 193.933Z" fill="#3F3D56"/>
<path d="M885.835 715.806H155.249V717.838H885.835V715.806Z" fill="#3F3D56"/>
<path opacity="0.2" d="M618.573 38.3984H588.411C589.798 41.7941 590.328 45.4782 589.953 49.1263C589.578 52.7743 588.311 56.2744 586.262 59.3182C584.213 62.3619 581.447 64.8559 578.205 66.5804C574.964 68.3049 571.348 69.207 567.675 69.2073H435.298C431.625 69.207 428.009 68.3049 424.767 66.5804C421.526 64.8558 418.759 62.3619 416.711 59.3181C414.662 56.2744 413.395 52.7743 413.02 49.1263C412.645 45.4782 413.175 41.7941 414.562 38.3984H386.39C380.199 38.3984 374.07 39.6159 368.35 41.9814C362.631 44.3469 357.434 47.8141 353.057 52.1849C348.679 56.5558 345.207 61.7448 342.838 67.4556C340.469 73.1664 339.25 79.2872 339.25 85.4686V682.043C339.25 688.224 340.469 694.345 342.838 700.056C345.207 705.767 348.679 710.956 353.057 715.327C357.434 719.697 362.631 723.165 368.35 725.53C374.07 727.896 380.199 729.113 386.39 729.113H618.573C624.764 729.113 630.894 727.896 636.613 725.53C642.333 723.165 647.529 719.698 651.907 715.327C656.284 710.956 659.757 705.767 662.126 700.056C664.495 694.345 665.714 688.224 665.714 682.043V85.4686C665.714 79.2872 664.495 73.1664 662.126 67.4556C659.757 61.7448 656.284 56.5558 651.907 52.1849C647.529 47.8141 642.333 44.3469 636.613 41.9814C630.894 39.6159 624.764 38.3984 618.573 38.3984V38.3984Z" fill="black"/>
<path d="M227.817 717.73L226.725 717.321C226.485 717.231 202.601 708.094 191.412 687.376C180.223 666.657 185.702 641.711 185.759 641.462L186.017 640.326L187.108 640.734C187.348 640.825 211.232 649.962 222.421 670.68C233.609 691.399 228.131 716.345 228.074 716.594L227.817 717.73ZM193.204 686.411C202.663 703.929 221.537 712.908 226.319 714.958C227.229 709.84 230.08 689.145 220.629 671.645C211.179 654.146 192.298 645.153 187.514 643.098C186.604 648.219 183.754 668.912 193.204 686.411Z" fill="#3F3D56"/>
<path d="M199.963 680.108C220.07 692.187 227.814 716.18 227.814 716.18C227.814 716.18 202.958 720.588 182.851 708.509C162.744 696.43 155 672.438 155 672.438C155 672.438 179.856 668.029 199.963 680.108Z" fill="#6C63FF"/>
<path d="M442.583 255.568H397.851V266.321H442.583V255.568Z" fill="#6C63FF"/>
<path d="M597.489 255.568H581.75V266.321H597.489V255.568Z" fill="#6C63FF"/>
<path d="M628.967 255.568H613.228V266.321H628.967V255.568Z" fill="#6C63FF"/>
<path d="M565.182 255.568H458.322V266.321H565.182V255.568Z" fill="#6C63FF"/>
<path d="M541.16 325.048H525.42V335.801H541.16V325.048Z" fill="#6C63FF"/>
<path d="M572.638 325.048H556.899V335.801H572.638V325.048Z" fill="#6C63FF"/>
<path d="M508.853 325.048H401.993V335.801H508.853V325.048Z" fill="#6C63FF"/>
<path d="M570.981 279.555H526.249V290.308H570.981V279.555Z" fill="#6C63FF"/>
<path d="M631.452 279.555H586.72V290.308H631.452V279.555Z" fill="#6C63FF"/>
<path d="M388.739 279.555H373V290.308H388.739V279.555Z" fill="#6C63FF"/>
<path d="M511.338 279.555H404.478V290.308H511.338V279.555Z" fill="#6C63FF"/>
<path d="M433.471 313.468H478.203V302.715H433.471V313.468Z" fill="#6C63FF"/>
<path d="M373 313.468H417.732V302.715H373V313.468Z" fill="#6C63FF"/>
<path d="M615.713 313.468H631.453V302.715H615.713V313.468Z" fill="#6C63FF"/>
<path d="M493.114 313.468H599.974V302.715H493.114V313.468Z" fill="#6C63FF"/>
<path d="M502.481 523.779C524.96 523.779 543.183 505.584 543.183 483.139C543.183 460.694 524.96 442.498 502.481 442.498C480.003 442.498 461.78 460.694 461.78 483.139C461.78 505.584 480.003 523.779 502.481 523.779Z" fill="#6C63FF"/>
<path d="M764.921 242.966C753.111 223.04 729.745 222.111 729.745 222.111C729.745 222.111 706.977 219.204 692.371 249.552C678.757 277.838 659.968 305.15 689.346 311.771L694.652 295.28L697.939 312.999C702.121 313.3 706.318 313.371 710.508 313.214C741.97 312.199 771.932 313.51 770.967 302.238C769.685 287.252 776.285 262.139 764.921 242.966Z" fill="#2F2E41"/>
<path d="M722.39 280.491C722.39 280.491 737.653 301.828 728.495 319.1C719.337 336.372 749.863 354.66 749.863 354.66L772.249 305.892C772.249 305.892 745.793 288.619 752.916 272.363L722.39 280.491Z" fill="#FBBEBE"/>
<path d="M732.565 289.635C747.176 289.635 759.021 277.808 759.021 263.219C759.021 248.63 747.176 236.803 732.565 236.803C717.954 236.803 706.109 248.63 706.109 263.219C706.109 277.808 717.954 289.635 732.565 289.635Z" fill="#FBBEBE"/>
<path d="M641.008 293.756L663.117 265.273C663.117 265.273 670.902 235.418 682.177 236.932C693.452 238.445 677.724 272.736 677.724 272.736L655.756 304.263L641.008 293.756Z" fill="#FBBEBE"/>
<path d="M752.916 672.672L760.038 710.264L775.301 714.328L771.231 669.624L752.916 672.672Z" fill="#FBBEBE"/>
<path d="M906.562 632.031L934.036 669.624L945.229 674.704L954.386 659.464L926.913 623.903L906.562 632.031Z" fill="#FBBEBE"/>
<path d="M746.811 338.404L729.837 316.093C729.837 316.093 696.952 322.148 693.899 325.196C690.846 328.244 702.039 384.125 702.039 384.125C702.039 384.125 704.074 399.365 713.232 407.493L722.39 413.589L797.687 398.349L800.518 364.896C801.55 352.711 800.02 340.445 796.028 328.885C792.036 317.325 785.67 306.724 777.336 297.764L764.235 299.552L746.811 338.404Z" fill="#575A89"/>
<path d="M697.969 327.228L692.881 325.195L669.478 323.163C669.478 323.163 661.338 321.131 663.373 317.067C665.408 313.003 667.443 311.987 663.373 310.971C659.303 309.955 658.285 308.939 659.303 305.891C660.32 302.843 666.425 296.747 666.425 296.747L649.127 282.523C649.127 282.523 648.191 283.184 646.678 284.408C638.089 291.351 610.914 316.401 630.812 341.452C654.215 370.916 681.688 388.188 704.074 382.092L697.969 327.228Z" fill="#575A89"/>
<path d="M720.355 408.509V422.733C720.355 422.733 711.197 440.005 714.249 456.261C717.302 472.518 718.32 480.646 718.32 480.646C718.652 494.471 721.052 508.17 725.442 521.286C732.565 541.607 709.162 674.704 738.67 676.736C768.179 678.768 784.459 680.8 793.617 670.64C802.775 660.48 778.354 485.726 778.354 485.726C778.354 485.726 861.791 659.464 879.089 652.352C896.387 645.24 940.141 628.984 935.053 619.84C929.966 610.695 801.757 407.493 801.757 407.493L797.687 398.349L720.355 408.509Z" fill="#2F2E41"/>
<path d="M769.196 703.153C769.196 703.153 752.915 702.137 752.915 707.217C752.915 712.297 744.775 729.569 744.775 729.569C744.775 729.569 738.67 749.889 754.95 747.857C771.231 745.825 781.406 727.537 781.406 727.537L777.336 708.233L769.196 703.153Z" fill="#2F2E41"/>
<path d="M939.124 667.592C939.124 667.592 924.878 658.448 925.896 664.544C926.913 670.64 927.931 686.896 935.054 687.912C942.176 688.928 963.544 695.025 964.562 697.057C965.579 699.089 990 707.217 990 694.009C990 680.8 974.737 670.64 974.737 670.64L957.439 657.432C957.439 657.432 946.246 656.416 944.211 663.528C942.176 670.64 939.124 667.592 939.124 667.592Z" fill="#2F2E41"/>
<path d="M732.605 239.082C741.936 239.082 749.5 231.529 749.5 222.212C749.5 212.895 741.936 205.342 732.605 205.342C723.274 205.342 715.71 212.895 715.71 222.212C715.71 231.529 723.274 239.082 732.605 239.082Z" fill="#2F2E41"/>
<path d="M713.932 217.773C713.932 213.607 715.477 209.588 718.268 206.49C721.059 203.393 724.899 201.437 729.048 200.998C726.692 200.748 724.31 200.995 722.055 201.724C719.801 202.453 717.725 203.647 715.963 205.229C714.201 206.811 712.792 208.745 711.828 210.906C710.863 213.067 710.365 215.407 710.365 217.773C710.365 220.139 710.863 222.479 711.828 224.64C712.792 226.801 714.201 228.735 715.963 230.317C717.725 231.899 719.801 233.093 722.055 233.822C724.31 234.551 726.692 234.798 729.048 234.548C724.899 234.109 721.059 232.153 718.268 229.055C715.477 225.958 713.932 221.939 713.932 217.773V217.773Z" fill="#2F2E41"/>
<path d="M759.7 241.045L736.616 228.971L704.737 233.911L698.142 262.997L714.56 262.368L719.147 251.681V262.191L726.722 261.9L731.119 244.887L733.868 262.997L760.8 262.449L759.7 241.045Z" fill="#2F2E41"/>
<path d="M758.318 410.863L722.717 411.824C722.717 411.824 692.34 417.726 694.044 405.483C695.749 393.24 725.384 397.522 725.384 397.522L757.823 392.581L758.318 410.863Z" fill="#FBBEBE"/>
<path d="M786.485 296.041C788.274 295.771 790.102 296.147 791.638 297.102C793.174 298.057 794.319 299.528 794.865 301.251C801.835 323.181 823.306 396.567 801.973 406.635C776.847 418.493 758.51 417.972 758.51 417.972L748.696 393.844L757.63 385.472L767.169 324.231L771.74 298.271L786.485 296.041Z" fill="#575A89"/>
<path opacity="0.4" d="M779.88 336.88L775.81 377.52L740.197 392.761L779.88 383.616V336.88Z" fill="black"/>
</g>
<defs>
<clipPath id="clip0">
<rect x="155" y="22" width="835" height="726" fill="white"/>
</clipPath>
</defs>
</svg>
