<svg width="1122" height="852" viewBox="0 0 1122 852" fill="none" xmlns="http://www.w3.org/2000/svg">
<g clip-path="url(#clip0)">
<path opacity="0.1" d="M375.9 851.306C429.715 851.306 473.34 844.3 473.34 835.656C473.34 827.013 429.715 820.006 375.9 820.006C322.085 820.006 278.46 827.013 278.46 835.656C278.46 844.3 322.085 851.306 375.9 851.306Z" fill="#6C63FF"/>
<path opacity="0.1" d="M905.57 851.746C972.722 851.746 1027.16 844.74 1027.16 836.096C1027.16 827.453 972.722 820.446 905.57 820.446C838.418 820.446 783.98 827.453 783.98 836.096C783.98 844.74 838.418 851.746 905.57 851.746Z" fill="#6C63FF"/>
<path opacity="0.1" d="M22.3598 407.207H123.85V545.537H29.7898C29.5398 546.957 29.2998 548.387 29.0398 549.817H123.85V661.377C123.68 661.327 123.53 661.267 123.37 661.207C120.69 660.147 118.03 659.027 115.37 657.827L113.67 657.057C111.003 655.797 108.336 654.463 105.67 653.057C104.74 652.567 103.81 652.057 102.89 651.537C88.0856 643.244 74.6368 632.736 63.0098 620.377C62.6698 620.047 62.3498 619.697 62.0098 619.377C60.3898 617.617 58.7998 615.837 57.2598 614.017L55.5598 612.017C53.7398 609.787 51.9798 607.497 50.2698 605.177C50.0198 604.837 49.7798 604.497 49.5198 604.177C42.5653 594.534 36.7908 584.093 32.3198 573.077C32.1798 572.747 32.0598 572.387 31.9298 572.077C30.5565 568.543 29.3398 564.977 28.2798 561.377C27.8198 559.867 27.3798 558.377 26.9998 556.807C26.8598 556.347 26.7398 555.897 26.6298 555.447C20.9498 533.277 20.2798 510.247 20.2798 487.377C20.2798 484.707 20.2798 482.027 20.2798 479.377C20.2798 470.127 20.3898 460.817 20.5498 451.517C20.5498 449.107 20.6498 446.707 20.6998 444.287C20.8398 438.147 21.0398 432.007 21.2998 425.867C21.3598 424.157 21.4398 422.457 21.5298 420.757C21.5298 419.777 21.5798 418.797 21.6798 417.817C21.9198 414.257 22.1198 410.727 22.3598 407.207Z" fill="#6C63FF"/>
<path opacity="0.1" d="M123.85 253.186H68.1802C77.2296 239.022 87.1172 225.411 97.7902 212.426C106.06 202.266 114.79 192.366 123.85 182.826V253.186Z" fill="#6C63FF"/>
<path opacity="0.1" d="M123.85 257.466V402.926H22.6802C22.6802 402.506 22.7502 402.076 22.7802 401.656C22.8702 400.506 22.9602 399.356 23.0602 398.216C23.1702 396.876 23.2902 395.526 23.4202 394.216C23.5502 392.906 23.6902 391.306 23.8402 389.856C23.9902 388.406 24.1302 386.936 24.3002 385.486C24.4702 384.036 24.6202 382.586 24.8002 381.146C24.9802 379.706 25.1402 378.246 25.3302 376.806C25.4802 375.606 25.6402 374.416 25.8002 373.216C26.0302 371.526 26.2702 369.826 26.5302 368.146C26.5302 367.896 26.6002 367.636 26.6402 367.396C28.4654 355.098 30.9523 342.907 34.0902 330.876C37.3748 318.256 41.5691 305.89 46.6402 293.876C52.0298 281.308 58.3403 269.155 65.5202 257.516L123.85 257.466Z" fill="#6C63FF"/>
<path opacity="0.1" d="M148.08 407.196V545.536H364.85V407.196H148.08ZM148.08 549.806V668.606C149.32 668.866 150.55 669.116 151.77 669.326C153.43 669.646 155.08 669.936 156.77 670.186C157.09 670.236 157.42 670.286 157.77 670.316C158.43 670.426 159.11 670.516 159.77 670.606C161.44 670.836 163.1 671.026 164.77 671.176C165.56 671.256 166.36 671.326 167.16 671.386L169.09 671.536C170.14 671.616 171.18 671.676 172.21 671.706C172.85 671.706 173.49 671.766 174.15 671.786C174.65 671.786 175.15 671.786 175.67 671.786C176.19 671.786 176.93 671.786 177.56 671.786C178.42 671.786 179.28 671.786 180.13 671.786H181.28C182.14 671.786 183 671.786 183.85 671.706H183.91C184.5 671.706 185.1 671.706 185.7 671.626C185.867 671.636 186.034 671.636 186.2 671.626C186.7 671.626 187.2 671.626 187.68 671.556H188.03L191.38 671.296C192.48 671.196 193.59 671.066 194.71 670.946L196.99 670.676C206.266 669.377 215.439 667.425 224.44 664.836C244.66 659.196 264.44 651.306 284.65 645.526C310.78 638.076 339.65 634.416 364.9 643.526V549.806H148.08ZM364.85 253.186V69.0164C341.117 68.7592 317.449 71.535 294.42 77.2764C239.53 91.0664 190.28 120.976 148.08 159.176V253.176H158.96V257.446H148.08V402.926H364.85V257.456H203.63V253.186H364.85ZM643.28 190.976C629.7 190.496 616.2 186.196 603.99 179.556C580.64 166.856 561.99 147.246 541.15 130.696C497.85 96.2264 444.15 75.4264 389.06 70.2664V253.186H698.51L699.28 252.376L643.28 190.976ZM671.47 185.976L701.36 218.776V177.376C691.35 178.616 682.58 181.566 671.51 185.936L671.47 185.976ZM701.36 698.106V549.806H637.67C637.5 549.176 637.33 548.536 637.13 547.896C637.32 548.536 637.48 549.176 637.66 549.806H389.1V657.056C391.46 658.806 393.79 660.646 396.1 662.516C398.59 664.516 401.05 666.626 403.52 668.696L406.01 670.756C407.2 671.756 408.4 672.756 409.61 673.696C412.01 675.643 414.433 677.563 416.88 679.456C418.09 680.456 419.33 681.356 420.56 682.296C440.087 697.226 460.686 710.699 482.19 722.606C487.01 725.273 491.873 727.876 496.78 730.416C500.05 732.086 503.34 733.746 506.64 735.356C511.6 737.776 516.6 740.11 521.64 742.356C568.106 763.215 617.241 777.528 667.64 784.886C678.833 786.54 690.07 787.84 701.35 788.786V698.096H702.35L701.36 698.106ZM389.1 257.456V402.926H701.4V257.456H389.1ZM389.1 407.196V545.536H701.4V407.196H389.1ZM725.64 177.196V223.376L763.79 181.516C751.15 179.476 738.433 178.02 725.64 177.146V177.196ZM725.64 407.246V545.536H1029.39V407.196L725.64 407.246ZM1028.28 709.086L1029.35 549.806H725.64V790.376C745.205 791.198 764.8 790.965 784.34 789.676V789.676H784.68C794.013 789.09 803.303 788.236 812.55 787.116H812.76C862.091 781.375 910.327 768.504 955.96 748.906L1028.28 709.086ZM1087.96 429.976C1086.82 427.286 1085.63 424.616 1084.42 421.976C1082.16 416.976 1079.77 412.116 1077.31 407.256H1053.61V545.536H1113.53C1113.5 506.376 1103.59 466.376 1087.99 429.926L1087.96 429.976ZM1053.61 549.856V686.856C1070.49 670.676 1084.75 652.166 1095.02 631.006C1107.37 605.526 1113.02 577.936 1113.48 549.836L1053.61 549.856ZM1053.61 366.936V402.936H1075.09C1068.59 390.544 1061.43 378.51 1053.64 366.886L1053.61 366.936ZM847.61 204.336C846.03 203.736 844.45 203.126 842.86 202.536C826.091 196.344 808.955 191.194 791.55 187.116L733.17 251.186L732.05 252.376L732.8 253.196H940.58C911.642 233.277 880.444 216.859 847.64 204.286L847.61 204.336ZM946.67 257.506H729.9L725.64 261.406V402.926H762.98H763.04H1029.43V334.376C1005.33 305.232 977.519 279.372 946.7 257.456L946.67 257.506Z" fill="#6C63FF"/>
<path opacity="0.1" d="M123.85 330.836V402.926H22.6802C22.6802 402.506 22.7502 402.076 22.7802 401.656C22.8702 400.506 22.9602 399.356 23.0602 398.216C23.1702 396.876 23.2902 395.526 23.4202 394.216C23.5502 392.906 23.6902 391.306 23.8402 389.856C23.9902 388.406 24.1302 386.936 24.3002 385.486C24.4702 384.036 24.6202 382.586 24.8002 381.146C24.9802 379.706 25.1402 378.246 25.3302 376.806C25.4802 375.606 25.6402 374.416 25.8002 373.216C26.0302 371.526 26.2702 369.826 26.5302 368.146C26.5302 367.896 26.6002 367.636 26.6402 367.396C28.4654 355.098 30.9523 342.907 34.0902 330.876L123.85 330.836Z" fill="#6C63FF"/>
<path opacity="0.1" d="M22.3598 407.207H123.85V545.537H29.7898C29.5398 546.957 29.2998 548.387 29.0398 549.817H123.85V661.377C123.68 661.327 123.53 661.267 123.37 661.207C120.69 660.147 118.03 659.027 115.37 657.827L113.67 657.057C111.003 655.797 108.336 654.463 105.67 653.057C104.74 652.567 103.81 652.057 102.89 651.537C88.0856 643.244 74.6368 632.736 63.0098 620.377C62.6698 620.047 62.3498 619.697 62.0098 619.377C60.3898 617.617 58.7998 615.837 57.2598 614.017L55.5598 612.017C53.7398 609.787 51.9798 607.497 50.2698 605.177C50.0198 604.837 49.7798 604.497 49.5198 604.177C42.5653 594.534 36.7908 584.093 32.3198 573.077C32.1798 572.747 32.0598 572.387 31.9298 572.077C30.5565 568.543 29.3398 564.977 28.2798 561.377C27.8198 559.867 27.3798 558.377 26.9998 556.807C26.8598 556.347 26.7398 555.897 26.6298 555.447C20.9498 533.277 20.2798 510.247 20.2798 487.377C20.2798 484.707 20.2798 482.027 20.2798 479.377C20.2798 470.127 20.3898 460.817 20.5498 451.517C20.5498 449.107 20.6498 446.707 20.6998 444.287C20.8398 438.147 21.0398 432.007 21.2998 425.867C21.3598 424.157 21.4398 422.457 21.5298 420.757C21.5298 419.777 21.5798 418.797 21.6798 417.817C21.9198 414.257 22.1198 410.727 22.3598 407.207Z" fill="#6C63FF"/>
<path opacity="0.1" d="M224.39 278.286V402.926H148.08V278.286H158.96V236.086H203.62V278.286H224.39Z" fill="#6C63FF"/>
<path opacity="0.1" d="M224.39 407.196H148.09V545.526H224.39V407.196Z" fill="#6C63FF"/>
<path opacity="0.1" d="M148.08 549.816H224.39V664.816C215.389 667.403 206.216 669.351 196.94 670.646L194.66 670.926C193.54 671.056 192.43 671.166 191.33 671.276C190.23 671.386 189.09 671.466 187.98 671.536H187.63C187.15 671.536 186.63 671.596 186.16 671.606H185.65C185.05 671.606 184.45 671.666 183.85 671.686C183 671.736 182.15 671.746 181.28 671.756C180.91 671.756 180.56 671.756 180.19 671.756C179.33 671.756 178.48 671.756 177.62 671.756H175.73C175.22 671.756 174.73 671.756 174.2 671.756L172.27 671.686C171.27 671.686 170.19 671.576 169.15 671.506L167.23 671.366L164.84 671.146C163.16 670.996 161.49 670.806 159.84 670.576L157.84 670.296L156.84 670.156C155.17 669.896 153.52 669.616 151.84 669.296C150.61 669.086 149.39 668.826 148.15 668.576L148.08 549.816Z" fill="#6C63FF"/>
<path opacity="0.1" d="M701.4 263.566H638.48V402.916H701.4V263.566Z" fill="#6C63FF"/>
<path opacity="0.1" d="M701.41 407.196V545.536H389.1V485.866H555.45V521.066H638.48V407.196H701.41Z" fill="#6C63FF"/>
<path opacity="0.1" d="M702.4 698.136H701.4V788.886C690.133 787.933 678.9 786.636 667.7 784.996C617.276 777.614 568.121 763.271 521.64 742.376C508.22 736.336 495.073 729.743 482.2 722.596C460.696 710.683 440.095 697.21 420.56 682.286C415.653 678.526 410.81 674.68 406.03 670.746C402.72 668.016 399.43 665.216 396.1 662.496C393.79 660.626 391.46 658.786 389.1 657.026V549.816H637.65C637.48 549.176 637.31 548.536 637.13 547.906C637.32 548.536 637.5 549.176 637.67 549.816H701.4V698.076C701.74 698.086 702.07 698.116 702.4 698.136Z" fill="#6C63FF"/>
<path opacity="0.1" d="M865.5 253.187H824.5V240.447H842.88V202.497C844.473 203.077 846.06 203.673 847.64 204.287V240.447H865.5V253.187Z" fill="#6C63FF"/>
<path opacity="0.1" d="M964.28 402.926H763C763 402.926 763 402.926 763.07 402.976L762.98 402.926H725.64V263.576H736.22V366.576H784.57V305.576H824.51V257.466H865.51V305.616H905.45V366.616H964.28V402.926Z" fill="#6C63FF"/>
<path opacity="0.1" d="M725.64 407.196V545.536H964.28V407.196H725.64ZM1029.06 708.376L1029.39 598.876H964.28V549.876H725.64V790.376C745.205 791.198 764.8 790.965 784.34 789.676V789.676H784.68C794.014 789.09 803.304 788.236 812.55 787.116H812.76C862.091 781.375 910.327 768.504 955.96 748.906" fill="#6C63FF"/>
<path opacity="0.1" d="M1057.85 549.816H1113.52C1113.03 577.906 1107.39 605.496 1095.05 630.976C1084.78 652.146 1070.51 670.656 1053.65 686.826V598.826H1057.85V549.816Z" fill="#6C63FF"/>
<path opacity="0.1" d="M1113.55 545.536H1057.85V429.926H1087.99C1103.59 466.376 1113.5 506.376 1113.55 545.536Z" fill="#6C63FF"/>
<path opacity="0.1" d="M701.41 302.306H667.7V345.996H701.41V302.306Z" fill="#6C63FF"/>
<path opacity="0.1" d="M701.41 392.866H667.7V402.926H701.41V392.866Z" fill="#6C63FF"/>
<path opacity="0.1" d="M701.41 407.196H667.7V436.546H701.41V407.196Z" fill="#6C63FF"/>
<path opacity="0.1" d="M701.41 483.426H667.7V527.116H701.41V483.426Z" fill="#6C63FF"/>
<path opacity="0.1" d="M701.41 573.986H667.7V617.676H701.41V573.986Z" fill="#6C63FF"/>
<path opacity="0.1" d="M701.4 698.076C701.74 698.076 702.07 698.076 702.4 698.136H701.4V708.286H667.7V664.546H701.4V698.076Z" fill="#6C63FF"/>
<path opacity="0.1" d="M701.4 755.086V788.836C690.134 787.883 678.9 786.586 667.7 784.946V755.086H701.4Z" fill="#6C63FF"/>
<path opacity="0.1" d="M533.57 542.326H389.1V545.536H533.57V542.326Z" fill="#6C63FF"/>
<path opacity="0.1" d="M533.57 549.806H389.1V562.106H533.57V549.806Z" fill="#6C63FF"/>
<path opacity="0.1" d="M533.57 602.426H389.1V622.206H533.57V602.426Z" fill="#6C63FF"/>
<path opacity="0.1" d="M533.56 662.526V682.306H420.56C415.653 678.56 410.807 674.713 406.02 670.766C402.71 668.036 399.43 665.236 396.09 662.526H533.56Z" fill="#6C63FF"/>
<path opacity="0.1" d="M533.56 722.616V742.376H521.63C508.224 736.33 495.08 729.733 482.2 722.586L533.56 722.616Z" fill="#6C63FF"/>
<path opacity="0.1" d="M812.79 420.606H784.35V449.046H812.79V420.606Z" fill="#6C63FF"/>
<path opacity="0.1" d="M197.01 288.096H168.57V316.536H197.01V288.096Z" fill="#6C63FF"/>
<path opacity="0.1" d="M197.01 354.156H168.57V382.596H197.01V354.156Z" fill="#6C63FF"/>
<path opacity="0.1" d="M197.01 420.216H168.57V448.656H197.01V420.216Z" fill="#6C63FF"/>
<path opacity="0.1" d="M197.01 486.266H168.57V514.706H197.01V486.266Z" fill="#6C63FF"/>
<path opacity="0.1" d="M197.01 552.326H168.57V580.766H197.01V552.326Z" fill="#6C63FF"/>
<path opacity="0.1" d="M197.01 618.386H168.57V646.826H197.01V618.386Z" fill="#6C63FF"/>
<path opacity="0.1" d="M921.36 420.606H892.92V449.046H921.36V420.606Z" fill="#6C63FF"/>
<path opacity="0.1" d="M812.79 490.756H784.35V519.196H812.79V490.756Z" fill="#6C63FF"/>
<path opacity="0.1" d="M921.36 490.756H892.92V519.196H921.36V490.756Z" fill="#6C63FF"/>
<path opacity="0.1" d="M812.79 560.896H784.35V589.336H812.79V560.896Z" fill="#6C63FF"/>
<path opacity="0.1" d="M921.36 560.896H892.92V589.336H921.36V560.896Z" fill="#6C63FF"/>
<path opacity="0.1" d="M812.79 631.046H784.35V659.486H812.79V631.046Z" fill="#6C63FF"/>
<path opacity="0.1" d="M921.36 631.046H892.92V659.486H921.36V631.046Z" fill="#6C63FF"/>
<path opacity="0.1" d="M812.79 701.196H784.35V729.636H812.79V701.196Z" fill="#6C63FF"/>
<path opacity="0.1" d="M921.36 701.196H892.92V729.636H921.36V701.196Z" fill="#6C63FF"/>
<path opacity="0.1" d="M784.35 789.676V771.336H812.78V787.066L784.35 789.676Z" fill="#6C63FF"/>
<path opacity="0.1" d="M26.52 367.376V383.646H123.85V367.376H26.52ZM36.22 382.626H28.28V368.376H36.28L36.22 382.626ZM45.91 382.626H37.91V368.376H45.91V382.626ZM55.58 382.626H47.58V368.376H55.58V382.626ZM65.27 382.626H57.28V368.376H65.28L65.27 382.626ZM74.95 382.626H66.95V368.376H74.95V382.626ZM84.64 382.626H76.64V368.376H84.64V382.626ZM94.33 382.626H86.33V368.376H94.33V382.626ZM104.01 382.626H96.01V368.376H104.01V382.626ZM113.69 382.626H105.69V368.376H113.69V382.626ZM123.37 382.626H115.37V368.376H123.37V382.626Z" fill="#6C63FF"/>
<path opacity="0.1" d="M26.52 414.716V430.986H123.85V414.716H26.52ZM36.22 429.956H28.28V415.746H36.28L36.22 429.956ZM45.91 429.956H37.91V415.746H45.91V429.956ZM55.58 429.956H47.58V415.746H55.58V429.956ZM65.27 429.956H57.28V415.746H65.28L65.27 429.956ZM74.95 429.956H66.95V415.746H74.95V429.956ZM84.64 429.956H76.64V415.746H84.64V429.956ZM94.33 429.956H86.33V415.746H94.33V429.956ZM104.01 429.956H96.01V415.746H104.01V429.956ZM113.69 429.956H105.69V415.746H113.69V429.956ZM123.37 429.956H115.37V415.746H123.37V429.956Z" fill="#6C63FF"/>
<path opacity="0.1" d="M26.52 462.076V478.376H123.85V462.076H26.52ZM36.22 477.316H28.28V463.096H36.28L36.22 477.316ZM45.91 477.316H37.91V463.096H45.91V477.316ZM55.58 477.316H47.58V463.096H55.58V477.316ZM65.27 477.316H57.28V463.096H65.28L65.27 477.316ZM74.95 477.316H66.95V463.096H74.95V477.316ZM84.64 477.316H76.64V463.096H84.64V477.316ZM94.33 477.316H86.33V463.096H94.33V477.316ZM104.01 477.316H96.01V463.096H104.01V477.316ZM113.69 477.316H105.69V463.096H113.69V477.316ZM123.37 477.316H115.37V463.096H123.37V477.316Z" fill="#6C63FF"/>
<path opacity="0.1" d="M26.52 509.437V525.687H123.85V509.437H26.52ZM36.22 524.677H28.28V510.447H36.28L36.22 524.677ZM45.91 524.677H37.91V510.447H45.91V524.677ZM55.58 524.677H47.58V510.447H55.58V524.677ZM65.27 524.677H57.28V510.447H65.28L65.27 524.677ZM74.95 524.677H66.95V510.447H74.95V524.677ZM84.64 524.677H76.64V510.447H84.64V524.677ZM94.33 524.677H86.33V510.447H94.33V524.677ZM104.01 524.677H96.01V510.447H104.01V524.677ZM113.69 524.677H105.69V510.447H113.69V524.677ZM123.37 524.677H115.37V510.447H123.37V524.677Z" fill="#6C63FF"/>
<path opacity="0.1" d="M26.9399 556.786C27.3299 558.316 27.7699 559.846 28.2299 561.356V557.806H36.2299V572.026H31.9499C32.0799 572.356 32.2099 572.716 32.3399 573.026H123.85V556.786H26.9399ZM45.9399 572.026H37.9399V557.806H45.9399V572.026ZM55.6099 572.026H47.6099V557.806H55.6099V572.026ZM65.2999 572.026H57.2799V557.806H65.2799L65.2999 572.026ZM74.9799 572.026H66.9799V557.806H74.9799V572.026ZM84.6699 572.026H76.6699V557.806H84.6699V572.026ZM94.3599 572.026H86.3599V557.806H94.3599V572.026ZM104.04 572.026H96.0399V557.806H104.04V572.026ZM113.72 572.026H105.72V557.806H113.72V572.026ZM123.4 572.026H115.4V557.806H123.4V572.026Z" fill="#6C63FF"/>
<path opacity="0.1" d="M49.54 604.146C49.79 604.466 50.03 604.826 50.29 605.146H55.58V611.976C56.15 612.656 56.71 613.336 57.29 613.976V605.106H65.29V619.376H62.05C62.37 619.706 62.68 620.056 63.05 620.376H123.88V604.146H49.54ZM74.95 619.376H66.95V605.166H74.95V619.376ZM84.64 619.376H76.64V605.166H84.64V619.376ZM94.33 619.376H86.33V605.166H94.33V619.376ZM104.01 619.376H96.01V605.166H104.01V619.376ZM113.69 619.376H105.69V605.166H113.69V619.376ZM123.37 619.376H115.37V605.166H123.37V619.376Z" fill="#6C63FF"/>
<path opacity="0.1" d="M102.93 651.497C103.84 652.017 104.77 652.497 105.71 653.017V652.517H113.71V657.017L115.41 657.807V652.517H123.41V661.167C123.564 661.243 123.724 661.303 123.89 661.347V651.497H102.93Z" fill="#6C63FF"/>
<path opacity="0.1" d="M763 402.926H763.06H763ZM701.4 698.066H702.4H701.4ZM637.13 547.896C637.32 548.536 637.48 549.176 637.66 549.806C637.5 549.176 637.33 548.536 637.13 547.896ZM763 402.896H763.06H763ZM159 253.156V257.426H203.67V253.156H159ZM701.4 698.066H702.4H701.4ZM637.13 547.896C637.32 548.536 637.48 549.176 637.66 549.806C637.5 549.176 637.33 548.536 637.13 547.896ZM763 402.896H763.06H763ZM701.4 698.036H702.4H701.4ZM637.13 547.896C637.32 548.536 637.48 549.176 637.66 549.806C637.5 549.176 637.33 548.536 637.13 547.896Z" fill="#6C63FF"/>
<path d="M470.12 448.676C470.12 448.676 466.18 448.126 466.18 442.386C466.18 436.646 463.36 425.926 463.36 425.926C463.36 425.876 460.92 407.256 457.55 404.296C454.18 401.336 449.85 383.956 449.85 383.956C449.85 383.956 449.11 374.526 447.6 372.496C446.09 370.466 444.05 365.496 441.04 358.406C438.03 351.316 425.48 346.406 425.48 346.406C425.48 346.406 402.79 333.246 396.36 328.956C395.775 328.604 395.229 328.192 394.73 327.726C393.61 326.256 388.73 326.226 388.73 326.226C388.22 323.006 387.73 319.306 387.57 315.956C387.57 315.596 387.57 315.236 387.52 314.876C394.69 310.638 400.09 303.956 402.73 296.056C402.85 295.676 402.95 295.276 403.06 294.896C403.49 294.755 403.885 294.525 404.221 294.222C404.556 293.919 404.825 293.549 405.01 293.136C405.59 291.846 405.6 290.336 406.32 289.136C407.16 287.716 408.76 286.956 410.02 285.886C413.2 283.186 414.02 278.636 413.87 274.496C413.77 271.146 413.23 267.766 413.44 264.436L413.5 263.596C413.56 263.096 413.63 262.596 413.72 262.116C414.21 259.636 415.28 257.296 415.88 254.836C416.48 252.376 416.54 249.606 415.14 247.486C413.09 244.376 408.82 243.756 405.07 243.436C400.82 243.076 397.02 243.546 394.3 240.016C393.027 238.171 391.595 236.441 390.02 234.846C389.46 234.326 384.02 231.006 384.02 230.786C378.71 228.327 372.692 227.866 367.07 229.486C364.25 230.306 361.59 231.646 358.73 232.316C352.56 233.776 345.46 232.196 340.22 235.726C337.3 237.726 335.55 240.906 333.91 244.006C332.577 246.56 331.223 249.11 329.85 251.656C327.64 255.846 325.39 260.106 324.46 264.746C324.264 265.756 324.144 266.779 324.1 267.806V267.856C324.1 268.226 324.1 268.596 324.1 268.966V269.436C324.1 269.786 324.1 270.126 324.16 270.436C324.22 270.746 324.21 270.846 324.24 271.056C324.27 271.266 324.32 271.736 324.38 272.056C324.44 272.376 324.56 272.936 324.68 273.376C324.73 273.566 324.8 273.746 324.86 273.926C324.96 274.266 325.08 274.596 325.21 274.926C325.28 275.096 325.35 275.276 325.43 275.446C325.58 275.796 325.76 276.136 325.94 276.446C326.02 276.586 326.08 276.716 326.16 276.846C326.439 277.311 326.746 277.759 327.08 278.186C329.22 280.856 332.37 282.556 334.7 285.056C334.7 285.156 334.7 285.256 334.7 285.346C334.7 285.626 334.7 285.896 334.7 286.176C334.824 291.752 336.308 297.213 339.023 302.084C341.738 306.955 345.603 311.089 350.28 314.126C350.28 314.506 350.33 314.896 350.35 315.276C350.545 318.245 350.508 321.224 350.24 324.186C349.833 323.707 349.323 323.325 348.748 323.068C348.174 322.812 347.549 322.689 346.92 322.706C346.49 322.685 346.06 322.722 345.64 322.816L345.55 322.746V322.836C343.35 323.376 340.64 325.666 338.05 332.176C338.05 332.176 330.17 341.056 324.17 340.686C318.17 340.316 302.98 349.926 302.98 349.926C302.98 349.926 288.16 359.546 284.98 369.346C283.202 374.903 281.071 380.341 278.6 385.626L260.28 423.376L256.9 453.326C256.9 453.326 258.77 466.646 258.4 468.676C258.03 470.706 266.09 489.016 266.09 489.016C266.09 489.016 292.72 535.806 303.6 538.206L304.38 537.656C304.845 537.899 305.339 538.084 305.85 538.206L308.09 536.626C308.224 538.387 308.167 540.158 307.92 541.906C306.42 546.526 308.48 576.676 311.1 582.586C313.72 588.496 312.79 665.986 312.79 665.986L312.42 672.826C312.42 672.826 312.42 673.046 312.51 673.426L312.42 675.046L312.69 675.186C312.97 677.356 312.879 679.557 312.42 681.696C311.48 684.696 311.1 693.176 311.1 693.176C311.1 693.176 303.61 741.056 307.16 750.676C310.71 760.296 313.73 770.836 313.73 770.836C313.73 770.836 317.48 782.836 313.91 784.886C310.34 786.936 300.19 790.376 302.28 795.376C304.18 799.996 311.39 812.376 312.46 814.186L312.37 815.136L310.9 831.066C311.138 833.17 311.708 835.222 312.59 837.146C314.2 840.616 317.33 844.216 323.28 843.826C324.28 843.756 325.44 843.636 326.56 843.486C337.45 842.026 350.86 837.166 350.86 837.166C350.164 836.724 349.525 836.197 348.96 835.596V835.596C348.425 835.078 348.001 834.456 347.713 833.768C347.426 833.08 347.282 832.341 347.29 831.596C347.45 828.696 342.02 814.876 340.67 811.476C340.46 810.986 340.35 810.706 340.35 810.706C340.35 810.706 352.73 797.766 350.67 786.296C350.67 786.296 336.97 778.296 341.48 773.906C345.99 769.516 354.05 756.906 354.05 756.906C354.05 756.906 354.42 709.756 354.05 702.716C353.664 697.83 353.896 692.915 354.74 688.086C354.89 687.356 355.07 686.646 355.26 685.946C361.497 686.877 367.794 687.355 374.1 687.376C376.4 687.376 378.74 687.376 381.1 687.236C381.1 687.903 381.13 688.623 381.19 689.396C381.71 701.076 382.68 721.556 383.47 729.166C384.59 740.076 390.78 769.476 390.78 769.476C390.78 769.476 378.97 777.056 392.84 795.736C392.84 795.736 392.84 802.506 391.92 803.486C390.938 806.69 390.146 809.949 389.55 813.246C388.97 816.766 388.73 820.326 389.67 822.176C391.92 826.596 405.42 826.236 405.42 826.236L405.75 826.176C408.299 825.913 410.874 826.158 413.327 826.898C415.78 827.638 418.062 828.858 420.04 830.486C425.17 834.606 444.64 832.796 455.18 831.486C459.31 830.966 462.07 830.486 462.07 830.486C462.204 830.019 462.251 829.531 462.21 829.046C462.1 826.456 460.07 820.776 446.31 815.706C446.31 815.706 433.37 807.006 433.55 799.426H433.28H431.78C432.87 799.366 433.57 799.426 433.57 799.426C433.57 799.426 428.5 780.926 430.57 779.426C432.64 777.926 426.44 757.426 426.44 757.426C426.44 757.426 422.89 723.026 422.7 720.616C422.708 718.548 423.021 716.493 423.63 714.516L422.7 695.656C422.7 695.656 422.52 689.386 422.7 687.346C422.67 685.576 422.526 683.809 422.27 682.056C422.18 681.356 422.09 680.626 421.99 679.906C426.84 678.676 429.99 677.536 429.99 677.536L429.43 611.886C433.55 603.886 434.31 586.336 434.29 573.886C434.29 565.886 433.93 559.966 433.93 559.966L439.56 550.776C439.56 550.776 440.86 539.776 438.8 537.366C437.89 536.276 438.3 535.146 439.05 534.216C439.439 533.907 439.85 533.627 440.28 533.376C440.28 533.376 440.22 533.286 440.15 533.156C440.543 532.828 440.961 532.53 441.4 532.266C441.4 532.266 439.4 529.166 441.19 527.856C442.87 528.996 444.37 529.856 445.51 530.556C445.43 531.286 445.35 531.706 445.35 531.706L445.83 530.706C446.93 531.326 447.6 531.706 447.6 531.706C447.6 531.706 456.42 514.136 456.23 511.546C456.04 508.956 462.23 498.046 462.23 498.046C462.23 498.046 462.98 492.316 466.36 489.916C469.74 487.516 468.98 470.126 468.98 470.126C468.98 470.126 469.92 461.066 472.17 457.366C474.42 453.666 470.12 448.676 470.12 448.676ZM301.36 440.966L301.53 445.156C300.53 443.546 299.81 442.386 299.81 442.386L301.36 440.966Z" fill="url(#paint0_linear)"/>
<path d="M448.08 524.116L445.92 533.316C445.92 533.316 428.62 524.486 425.5 513.266C422.38 502.046 430.72 497.786 430.72 497.786L446.84 504.616L448.08 524.116Z" fill="white"/>
<path opacity="0.1" d="M448.08 524.116L445.92 533.316C445.92 533.316 428.62 524.486 425.5 513.266C422.38 502.046 430.72 497.786 430.72 497.786L446.84 504.616L448.08 524.116Z" fill="black"/>
<path d="M350.99 837.226C350.99 837.226 334.99 843.106 323.99 843.846C318.15 844.236 315.08 840.656 313.5 837.206C312.637 835.288 312.08 833.247 311.85 831.156L313.28 815.306L314.04 806.866L337.41 800.796L340.72 810.916L341.03 811.686C342.36 815.066 347.69 828.816 347.53 831.686C347.524 832.421 347.665 833.15 347.947 833.829C348.229 834.507 348.645 835.122 349.17 835.636C349.707 836.242 350.318 836.776 350.99 837.226V837.226Z" fill="white"/>
<path d="M460.28 829.167C460.32 829.648 460.272 830.132 460.14 830.597C460.14 830.597 425.92 836.307 418.92 830.597C416.946 828.928 414.646 827.691 412.166 826.965C409.686 826.238 407.082 826.038 404.52 826.377C404.52 826.377 391.28 826.737 389.07 822.377C388.15 820.547 388.39 816.997 388.96 813.497C389.541 810.217 390.316 806.975 391.28 803.787L391.81 803.367L394.96 800.837L431.84 799.747H432.12C431.94 807.287 444.64 815.937 444.64 815.937C458.13 820.937 460.12 826.587 460.28 829.167Z" fill="white"/>
<path opacity="0.1" d="M460.28 829.167C460.315 829.648 460.264 830.133 460.13 830.597C460.13 830.597 425.92 836.307 418.92 830.597C416.948 828.93 414.649 827.693 412.171 826.967C409.693 826.24 407.09 826.039 404.53 826.377C404.53 826.377 391.28 826.737 389.08 822.377C388.16 820.537 388.39 816.997 388.96 813.497C394.06 814.007 402.11 815.277 405.27 818.307C410.05 822.917 418.15 827.517 423.12 827.877C427.01 828.127 450.28 828.867 460.28 829.167Z" fill="black"/>
<path opacity="0.1" d="M350.99 837.227C350.99 837.227 334.99 843.106 323.99 843.846C318.15 844.236 315.08 840.657 313.51 837.197C317.58 838.567 323.23 840.007 326.2 838.687C329.72 837.127 342.2 836.117 349.2 835.687C349.733 836.27 350.334 836.787 350.99 837.227V837.227Z" fill="black"/>
<path d="M374.73 363.376C361.53 358.246 344.55 341.296 348.79 333.376C349.732 331.378 350.292 329.221 350.44 327.016C350.713 324.024 350.753 321.015 350.56 318.016C350.263 313.106 349.672 308.217 348.79 303.376C348.79 303.376 390 304.306 387.6 310.376C386.9 312.156 386.79 315.246 386.98 318.706C387.17 322.166 387.67 326.076 388.19 329.386C388.91 333.926 389.63 337.386 389.63 337.386C389.63 337.386 387.11 340.916 385.63 341.106C384.15 341.296 393.67 370.686 374.73 363.376Z" fill="#CF6F80"/>
<path opacity="0.1" d="M341 811.686L340.69 812.026C328.37 797.126 313.47 815.696 313.47 815.696L313.25 815.306L314.01 806.866L337.38 800.796L340.69 810.916L341 811.686Z" fill="black"/>
<path opacity="0.1" d="M432.13 800.797C432.13 800.797 423.13 800.606 418.33 804.846C413.53 809.086 390.33 805.766 391.33 804.846C391.626 804.391 391.805 803.868 391.85 803.327L395 800.797L431.88 799.707C432.02 800.377 432.13 800.797 432.13 800.797Z" fill="black"/>
<path d="M356.33 683.786C355.66 685.443 355.151 687.161 354.81 688.916C353.976 693.722 353.745 698.613 354.12 703.476C354.49 710.476 354.12 757.386 354.12 757.386C354.12 757.386 346.21 769.896 341.8 774.306C337.39 778.716 350.8 786.636 350.8 786.636C352.8 798.036 340.68 810.916 340.68 810.916C328.36 796.016 313.46 814.596 313.46 814.596C313.46 814.596 305.36 800.596 303.34 795.596C301.32 790.596 311.25 787.136 314.74 785.106C318.23 783.076 314.57 771.106 314.57 771.106C314.57 771.106 311.62 760.616 308.12 751.046C304.62 741.476 311.98 693.836 311.98 693.836C311.98 693.836 312.36 685.376 313.27 682.426C313.729 680.297 313.821 678.106 313.54 675.946C313.48 675.216 313.41 674.606 313.36 674.196C313.31 673.786 313.27 673.596 313.27 673.596L313.41 673.356L318.41 664.036C318.41 664.036 358.73 677.916 356.33 683.786Z" fill="#6C63FF"/>
<path d="M432.13 799.696C432.13 799.696 423.13 799.506 418.33 803.696C413.53 807.886 390.33 804.616 391.33 803.696C392.33 802.776 392.25 795.966 392.25 795.966C378.64 777.386 390.25 769.846 390.25 769.846C390.25 769.846 384.17 740.596 383.07 729.746C382.3 722.166 381.35 701.796 380.84 690.166C380.62 685.166 380.49 681.726 380.49 681.726L391.61 679.486L393.04 679.196L419.86 673.816C419.86 673.816 420.6 678.816 421.1 682.906C421.35 684.653 421.49 686.413 421.52 688.176C421.34 690.176 421.52 696.436 421.52 696.436L422.43 715.206C421.836 717.175 421.529 719.22 421.52 721.276C421.7 723.666 425.19 757.886 425.19 757.886C425.19 757.886 431.26 778.306 429.19 779.776C427.12 781.246 432.13 799.696 432.13 799.696Z" fill="#6C63FF"/>
<path opacity="0.1" d="M387.6 310.376C386.9 312.156 386.79 315.246 386.98 318.706C381.46 322.03 375.114 323.73 368.672 323.61C362.23 323.489 355.952 321.554 350.56 318.026C350.263 313.112 349.672 308.22 348.79 303.376C348.79 303.376 390 304.286 387.6 310.376Z" fill="black"/>
<path d="M403.53 288.276C403.538 291.88 402.971 295.461 401.85 298.886C399.345 306.56 394.207 313.101 387.346 317.353C380.484 321.605 372.34 323.295 364.353 322.123C356.367 320.951 349.051 316.994 343.7 310.95C338.348 304.907 335.306 297.166 335.11 289.096C335.11 288.816 335.11 288.556 335.11 288.276C335.032 283.734 335.86 279.221 337.545 275.002C339.229 270.783 341.737 266.941 344.922 263.702C348.107 260.462 351.905 257.889 356.095 256.132C360.284 254.376 364.782 253.471 369.325 253.471C373.868 253.471 378.366 254.376 382.555 256.132C386.745 257.889 390.543 260.462 393.728 263.702C396.913 266.941 399.421 270.783 401.105 275.002C402.79 279.221 403.618 283.734 403.54 288.276H403.53Z" fill="#CF6F80"/>
<path opacity="0.1" d="M374.73 363.376C361.53 358.246 344.55 341.296 348.79 333.376C349.732 331.377 350.292 329.22 350.44 327.016L368.51 341.866L379.69 351.036L388.19 329.396C388.91 333.936 389.63 337.396 389.63 337.396C389.63 337.396 387.11 340.926 385.63 341.116C384.15 341.306 393.67 370.686 374.73 363.376Z" fill="black"/>
<path d="M421.46 429.006L406.37 682.506L386.69 683.796L335.73 536.806L344.09 362.296L345.85 325.426L368.51 344.036L379.7 353.206L388.45 330.936L404.72 345.116L421.46 429.006Z" fill="#6C63FF"/>
<path opacity="0.1" d="M356.33 683.786C355.659 685.443 355.15 687.161 354.81 688.916C340.49 686.705 326.582 682.36 313.55 676.026L313.28 675.886L313.37 674.276L313.42 673.436L318.42 664.116C318.42 664.116 358.73 677.916 356.33 683.786Z" fill="black"/>
<path opacity="0.1" d="M391.84 688.956C388.179 689.579 384.487 689.999 380.78 690.216C380.56 685.216 380.43 681.776 380.43 681.776L391.55 679.536L391.84 688.956Z" fill="black"/>
<path opacity="0.1" d="M421.04 682.956C413.93 684.806 402.95 686.886 393.12 685.586L392.98 679.246L419.8 673.866C419.8 673.866 420.54 678.816 421.04 682.956Z" fill="black"/>
<path opacity="0.1" d="M392.94 686.746C351.94 693.746 314.39 673.676 314.39 673.676L314.75 666.876C314.75 666.876 315.68 589.786 313.1 583.876C310.52 577.966 308.51 547.996 309.97 543.396C311.43 538.796 304.64 469.816 304.64 469.816L303.54 441.816L263.28 425.506L281.28 387.986C283.711 382.726 285.802 377.315 287.54 371.786C290.67 362.046 305.2 352.476 305.2 352.476C305.2 352.476 320.1 342.916 325.99 343.276C331.88 343.636 339.6 334.816 339.6 334.816C345.3 320.286 350.46 326.866 350.46 326.866C350.46 327.556 350.46 326.866 350.18 329.016C348.18 344.966 382.52 395.366 383.01 396.256L386.28 475.916L389.59 576.726L392.94 686.746Z" fill="black"/>
<path d="M391.84 686.747C350.84 693.747 313.28 673.677 313.28 673.677L313.65 666.877C313.65 666.877 314.58 589.787 311.99 583.877C309.4 577.967 307.4 547.997 308.87 543.397C310.34 538.797 303.54 469.817 303.54 469.817L302.43 441.817L262.15 425.447L280.15 387.927C282.576 382.664 284.667 377.253 286.41 371.727C289.53 361.987 304.07 352.417 304.07 352.417C304.07 352.417 318.97 342.857 324.85 343.217C330.73 343.577 338.46 334.757 338.46 334.757C344.17 320.227 350.46 326.807 350.46 326.807C350.46 327.497 349.86 327.807 350.18 328.957C354.58 344.427 381.42 395.307 381.91 396.197L385.22 475.857L388.53 576.667L391.84 686.747Z" fill="white"/>
<path opacity="0.1" d="M380.79 398.466C376.38 396.626 353.02 369.956 353.02 369.956V363.886C352.17 361.886 347.12 363.106 343.02 364.506L344.78 327.636L346.78 329.296C351.16 344.756 380.28 397.576 380.79 398.466Z" fill="black"/>
<path d="M381.9 396.256C377.48 394.416 354.12 367.746 354.12 367.746V361.676C353.27 359.676 348.22 360.896 344.12 362.296L345.89 325.426L347.89 327.086C352.28 342.546 381.41 395.376 381.9 396.256Z" fill="white"/>
<path opacity="0.1" d="M314.39 529.266C314.94 529.266 342.9 526.326 342.9 526.326C342.9 526.326 359.83 559.616 358.72 567.716C357.61 575.816 355.6 582.986 348.79 581.716C341.98 580.446 312.14 582.716 312.14 582.716L314.39 529.266Z" fill="black"/>
<path d="M313.28 527.056C313.83 527.056 341.79 524.116 341.79 524.116C341.79 524.116 358.71 557.416 357.61 565.506C356.51 573.596 354.48 580.776 347.68 579.506C340.88 578.236 311.03 580.506 311.03 580.506L313.28 527.056Z" fill="white"/>
<path d="M334.35 511.426C334.35 511.426 360.01 525.216 360.56 529.426C361.11 533.636 347.5 527.586 344.56 526.856C342.625 526.39 340.655 526.082 338.67 525.936L319.06 526.466L334.35 511.426Z" fill="#CF6F80"/>
<path opacity="0.1" d="M373.63 400.186C375.121 400.186 376.33 398.977 376.33 397.486C376.33 395.995 375.121 394.786 373.63 394.786C372.139 394.786 370.93 395.995 370.93 397.486C370.93 398.977 372.139 400.186 373.63 400.186Z" fill="black"/>
<path d="M373.63 399.087C375.121 399.087 376.33 397.878 376.33 396.387C376.33 394.895 375.121 393.687 373.63 393.687C372.139 393.687 370.93 394.895 370.93 396.387C370.93 397.878 372.139 399.087 373.63 399.087Z" fill="#3F3D56"/>
<path opacity="0.1" d="M378.6 517.066C380.091 517.066 381.3 515.858 381.3 514.366C381.3 512.875 380.091 511.667 378.6 511.667C377.109 511.667 375.9 512.875 375.9 514.366C375.9 515.858 377.109 517.066 378.6 517.066Z" fill="black"/>
<path d="M378.6 515.956C380.091 515.956 381.3 514.747 381.3 513.256C381.3 511.765 380.091 510.556 378.6 510.556C377.109 510.556 375.9 511.765 375.9 513.256C375.9 514.747 377.109 515.956 378.6 515.956Z" fill="#3F3D56"/>
<path opacity="0.1" d="M376.32 458.627C377.811 458.627 379.02 457.418 379.02 455.927C379.02 454.435 377.811 453.227 376.32 453.227C374.829 453.227 373.62 454.435 373.62 455.927C373.62 457.418 374.829 458.627 376.32 458.627Z" fill="black"/>
<path d="M376.32 457.526C377.811 457.526 379.02 456.318 379.02 454.826C379.02 453.335 377.811 452.126 376.32 452.126C374.829 452.126 373.62 453.335 373.62 454.826C373.62 456.318 374.829 457.526 376.32 457.526Z" fill="#3F3D56"/>
<path d="M438.56 525.376C438.56 525.376 440.4 528.136 438.56 529.426C436.72 530.716 438.74 533.836 438.74 533.836C438.74 533.836 434.15 536.526 436.17 538.946C438.19 541.366 436.91 552.296 436.91 552.296L431.39 561.436C431.39 561.436 431.72 567.326 431.74 575.286C431.74 587.706 431.01 605.166 426.97 613.126L427.53 678.436C427.53 678.436 408.2 685.496 392.02 683.346L389.62 578.546C389.62 578.546 393.12 519.116 394.41 507.716C395.165 501.798 395.473 495.831 395.33 489.866C395.33 489.866 394.78 472.026 392.93 463.746C392.93 463.746 390.93 427.876 390.73 417.946C390.64 413.196 390.89 399.336 391.17 386.156C391.48 371.746 391.83 358.156 391.83 358.156L388.18 329.276C388.18 329.276 391.83 328.906 392.93 330.376C393.423 330.837 393.959 331.249 394.53 331.606V331.606C400.83 335.866 423.09 348.966 423.09 348.966C423.09 348.966 435.41 353.866 438.36 360.886C441.31 367.906 443.36 372.886 444.79 374.886C446.22 376.886 447 386.286 447 386.286C447 386.286 451.24 403.586 454.55 406.516C457.86 409.446 460.28 428.086 460.28 428.086L431.03 451.086C431.03 451.086 428.46 489.346 427.91 490.826C427.36 492.306 438.56 525.376 438.56 525.376Z" fill="white"/>
<path d="M439.67 525.376C439.67 525.376 441.5 528.136 439.67 529.426C437.84 530.716 439.84 533.837 439.84 533.837C439.84 533.837 435.28 536.556 437.28 538.976C439.28 541.396 438.02 552.327 438.02 552.327L432.5 561.467C432.5 561.467 432.83 567.356 432.86 575.316C432.86 587.736 432.13 605.197 428.09 613.157L428.64 678.467C428.64 678.467 409.28 685.526 393.12 683.376L390.73 578.577C390.73 578.577 394.23 519.146 395.52 507.746C396.276 501.828 396.58 495.861 396.43 489.896C396.43 489.896 395.88 472.056 394.04 463.776C394.04 463.776 392.04 427.907 391.83 417.977C391.74 413.227 392 399.366 392.27 386.186C392.58 371.776 392.93 358.186 392.93 358.186L388.11 328.917C388.11 328.917 392.93 328.916 394.04 330.406C394.528 330.872 395.064 331.285 395.64 331.637C401.94 335.897 424.21 348.996 424.21 348.996C424.21 348.996 436.52 353.897 439.47 360.917C442.42 367.937 444.47 372.917 445.91 374.917C447.35 376.917 448.11 386.316 448.11 386.316C448.11 386.316 452.35 403.617 455.66 406.547C458.97 409.477 461.36 428.077 461.36 428.077L432.11 451.077C432.11 451.077 429.54 489.336 428.98 490.816C428.42 492.296 439.67 525.376 439.67 525.376Z" fill="white"/>
<path opacity="0.1" d="M404.64 366.676L407.28 374.376L393.38 388.376C393.69 373.976 394.04 360.376 394.04 360.376L389.22 331.106C389.22 331.106 394.04 331.106 395.15 332.596C395.637 333.061 396.174 333.47 396.75 333.816L408.57 367.916L404.64 366.676Z" fill="black"/>
<path d="M403.53 364.466L406.18 372.167L392.28 386.167C392.59 371.757 392.94 358.167 392.94 358.167L388.11 328.896C388.11 328.896 392.94 328.897 394.04 330.387C394.53 330.849 395.066 331.261 395.64 331.616L407.47 365.706L403.53 364.466Z" fill="white"/>
<path opacity="0.1" d="M403.53 288.276C403.538 291.88 402.971 295.461 401.85 298.886C401.661 298.916 401.468 298.907 401.283 298.861C401.097 298.814 400.923 298.731 400.77 298.616C400.51 289.616 396.08 281.166 390.63 273.976C389.1 271.805 387.245 269.883 385.13 268.276C382.992 266.67 380.332 265.918 377.67 266.166C374.67 266.576 372.02 268.616 368.99 268.876C364.99 269.206 361.41 266.436 357.44 266.296C355.826 266.311 354.234 266.671 352.77 267.35C351.306 268.03 350.004 269.014 348.95 270.236C346.864 272.703 345.315 275.578 344.4 278.676C342.828 283.375 341.971 288.283 341.86 293.236C341.81 296.036 341.54 299.546 338.94 300.566C339.136 298.507 338.902 296.429 338.253 294.465C337.604 292.501 336.554 290.693 335.17 289.156L335.11 289.096C335.11 288.816 335.11 288.556 335.11 288.276C335.032 283.734 335.86 279.221 337.545 275.002C339.229 270.783 341.737 266.941 344.922 263.702C348.107 260.462 351.905 257.889 356.095 256.132C360.284 254.376 364.782 253.471 369.325 253.471C373.868 253.471 378.366 254.376 382.555 256.132C386.745 257.889 390.543 260.462 393.728 263.702C396.913 266.941 399.421 270.783 401.105 275.002C402.79 279.221 403.618 283.734 403.54 288.276H403.53Z" fill="black"/>
<path d="M383.49 233.946C378.294 231.502 372.383 231.04 366.87 232.646C364.1 233.466 361.49 234.796 358.68 235.466C352.68 236.916 345.68 235.346 340.53 238.856C337.67 240.856 335.95 244.016 334.35 247.086L330.35 254.706C328.17 258.876 325.97 263.116 325.06 267.706C324.15 272.296 324.7 277.436 327.61 281.126C329.73 283.816 332.86 285.506 335.16 288.036C336.538 289.575 337.583 291.382 338.23 293.344C338.877 295.306 339.112 297.38 338.92 299.436C341.53 298.436 341.78 294.916 341.84 292.116C341.952 287.163 342.808 282.255 344.38 277.556C345.293 274.457 346.843 271.582 348.93 269.116C349.985 267.895 351.287 266.912 352.751 266.232C354.215 265.553 355.806 265.193 357.42 265.176C361.42 265.316 365.01 268.076 368.97 267.746C371.97 267.496 374.63 265.446 377.65 265.046C380.313 264.795 382.974 265.547 385.11 267.156C387.224 268.761 389.076 270.684 390.6 272.856C396.06 280.046 400.49 288.476 400.75 297.496C401.88 298.326 403.51 297.246 404.07 295.966C404.63 294.686 404.65 293.186 405.36 291.966C406.18 290.556 407.75 289.806 408.98 288.746C412.1 286.056 412.88 281.526 412.76 277.416C412.64 273.306 411.84 269.136 412.62 265.096C413.09 262.616 414.15 260.296 414.73 257.846C415.31 255.396 415.38 252.646 414.01 250.536C412.01 247.436 407.8 246.826 404.13 246.536C399.96 246.176 396.23 246.636 393.57 243.126C392.322 241.295 390.916 239.575 389.37 237.986C388.84 237.466 383.49 234.166 383.49 233.946Z" fill="#512E4E"/>
<path opacity="0.1" d="M274.8 444.826L264.35 425.506L261.04 455.316C261.04 455.316 262.88 468.556 262.51 470.586C262.14 472.616 270.05 490.816 270.05 490.816C270.05 490.816 296.18 537.356 306.85 539.756L342.9 513.996L333.34 501.856C333.34 501.856 330.03 500.566 329.2 501.856C329.2 501.856 311.45 471.316 309.61 469.106C307.77 466.896 308.13 462.486 308.13 462.486C308.13 462.486 305.37 459.546 306.29 456.786C307.21 454.026 300.96 444.456 300.96 444.456L306.66 439.126L274.8 444.826Z" fill="black"/>
<path d="M264.9 423.306L262.14 425.506L258.83 455.316C258.83 455.316 260.67 468.556 260.3 470.586C259.93 472.616 267.85 490.816 267.85 490.816C267.85 490.816 293.97 537.356 304.64 539.756L340.7 513.996L331.13 501.856C331.13 501.856 327.82 500.566 326.99 501.856C326.99 501.856 309.24 471.316 307.4 469.106C305.56 466.896 305.93 462.486 305.93 462.486C305.93 462.486 303.17 459.546 304.09 456.786C305.01 454.026 298.75 444.456 298.75 444.456L304.45 439.126L264.9 423.306Z" fill="white"/>
<path opacity="0.1" d="M436.17 540.086C438.17 542.516 436.91 553.426 436.91 553.426L431.39 562.566C431.39 562.566 431.72 568.466 431.74 576.416L422.46 579.316C421.621 579.578 420.732 579.636 419.867 579.484C419.001 579.333 418.184 578.976 417.485 578.445C416.785 577.914 416.222 577.223 415.844 576.43C415.466 575.637 415.283 574.765 415.31 573.886L416.91 522.276L438.56 530.556C436.72 531.836 438.74 534.976 438.74 534.976C438.74 534.976 434.15 537.656 436.17 540.086Z" fill="black"/>
<path d="M437.28 538.976C439.28 541.406 438.02 552.326 438.02 552.326L432.5 561.466C432.5 561.466 432.83 567.356 432.86 575.316L423.41 578.266C422.589 578.522 421.718 578.577 420.871 578.428C420.024 578.279 419.225 577.929 418.54 577.409C417.855 576.888 417.305 576.212 416.934 575.436C416.564 574.659 416.384 573.806 416.41 572.946L418.02 521.176L439.68 529.456C437.83 530.736 439.85 533.866 439.85 533.866C439.85 533.866 435.28 536.556 437.28 538.976Z" fill="white"/>
<path d="M444.45 514.376C444.45 514.376 442.98 523.766 439.3 524.316C435.62 524.866 433.97 539.506 430.3 538.986C426.63 538.466 429.06 525.376 429.19 522.836C429.32 520.296 425.19 509.776 428.28 507.386C431.37 504.996 441.15 507.386 441.15 507.386L444.45 514.376Z" fill="#CF6F80"/>
<path opacity="0.1" d="M452.28 442.066L459.22 428.066C459.22 428.066 461.98 438.736 461.98 444.436C461.98 450.136 465.84 450.696 465.84 450.696C465.84 450.696 470.07 455.696 467.84 459.336C465.61 462.976 464.71 472.036 464.71 472.036C464.71 472.036 465.44 489.326 462.13 491.716C458.82 494.106 458.13 499.816 458.13 499.816C458.13 499.816 452.05 510.666 452.24 513.246C452.43 515.826 443.78 533.296 443.78 533.296C443.78 533.296 448.01 511.586 423.36 502.206C423.36 502.206 423.17 494.836 425.01 492.816C426.85 490.796 429.72 489.876 427.92 479.666C426.12 469.456 427.4 457.256 427.4 454.806C427.4 452.356 432.92 437.076 432.92 437.076L452.28 442.066Z" fill="black"/>
<path d="M455.28 426.066L461.34 428.066C461.34 428.066 464.11 438.736 464.11 444.436C464.11 450.136 467.97 450.696 467.97 450.696C467.97 450.696 472.2 455.696 469.97 459.336C467.74 462.976 466.85 472.036 466.85 472.036C466.85 472.036 467.58 489.326 464.27 491.716C460.96 494.106 460.22 499.816 460.22 499.816C460.22 499.816 454.15 510.666 454.34 513.246C454.53 515.826 445.87 533.296 445.87 533.296C445.87 533.296 450.11 511.586 425.45 502.206C425.45 502.206 425.27 494.836 427.11 492.816C428.95 490.796 431.82 489.876 430.02 479.666C428.22 469.456 429.5 457.256 429.5 454.806C429.5 452.356 435.02 437.076 435.02 437.076L455.28 426.066Z" fill="white"/>
<path opacity="0.1" d="M321.43 788.936C321.43 788.936 331.09 782.867 337.43 787.277C343.77 791.687 321.43 788.936 321.43 788.936Z" fill="black"/>
<path opacity="0.1" d="M396.49 770.166C396.49 770.166 405.04 769.066 412.22 776.796C419.4 784.526 396.49 770.166 396.49 770.166Z" fill="black"/>
<g opacity="0.1">
<path opacity="0.1" d="M409 286.556C407.77 287.616 406.19 288.376 405.37 289.786C404.67 290.996 404.65 292.486 404.09 293.786C403.53 295.086 401.9 296.146 400.77 295.326C400.51 286.326 396.07 277.876 390.62 270.676C389.096 268.504 387.244 266.581 385.13 264.976C382.99 263.367 380.326 262.615 377.66 262.866C374.66 263.276 372.02 265.316 368.99 265.566C364.99 265.906 361.4 263.136 357.43 262.996C355.817 263.012 354.225 263.373 352.763 264.054C351.3 264.736 350 265.722 348.95 266.946C346.862 269.409 345.313 272.28 344.4 275.376C342.829 280.075 341.972 284.983 341.86 289.936C341.8 292.726 341.54 296.206 338.96 297.246C339.02 297.985 339.02 298.728 338.96 299.466C341.56 298.466 341.82 294.946 341.88 292.146C341.991 287.193 342.848 282.285 344.42 277.586C345.333 274.487 346.882 271.612 348.97 269.146C350.023 267.925 351.323 266.942 352.785 266.263C354.248 265.583 355.838 265.223 357.45 265.206C361.45 265.346 365.05 268.106 369.01 267.776C372.01 267.526 374.67 265.476 377.68 265.076C380.346 264.825 383.01 265.577 385.15 267.186C387.264 268.791 389.116 270.714 390.64 272.886C396.09 280.076 400.53 288.506 400.79 297.526C401.92 298.356 403.55 297.276 404.11 295.996C404.67 294.716 404.69 293.216 405.39 291.996C406.21 290.586 407.79 289.836 409.02 288.776C412.14 286.086 412.92 281.556 412.8 277.446C412.8 277.316 412.8 277.186 412.8 277.066C412.61 280.626 411.66 284.256 409 286.556Z" fill="black"/>
<path opacity="0.1" d="M335.18 285.846C332.88 283.316 329.74 281.626 327.63 278.946C325.853 276.574 324.839 273.718 324.72 270.756C324.405 274.457 325.439 278.147 327.63 281.146C329.74 283.836 332.88 285.526 335.18 288.056C337.388 290.531 338.714 293.668 338.95 296.976C339.103 294.963 338.848 292.939 338.2 291.027C337.552 289.114 336.525 287.352 335.18 285.846V285.846Z" fill="black"/>
<path opacity="0.1" d="M414.75 255.656C414.16 258.106 413.11 260.436 412.63 262.906C412.346 264.557 412.242 266.233 412.32 267.906C412.354 266.953 412.457 266.004 412.63 265.066C413.11 262.586 414.16 260.266 414.75 257.816C415.094 256.465 415.206 255.065 415.08 253.676C415.018 254.343 414.908 255.005 414.75 255.656V255.656Z" fill="black"/>
</g>
<path opacity="0.1" d="M141.25 829.596C195.065 829.596 238.69 822.59 238.69 813.946C238.69 805.303 195.065 798.296 141.25 798.296C87.4354 798.296 43.8101 805.303 43.8101 813.946C43.8101 822.59 87.4354 829.596 141.25 829.596Z" fill="#6C63FF"/>
<path d="M144.39 514.146H138.12V655.316H144.39V514.146Z" fill="#535461"/>
<path d="M183.79 654.886L183.4 661.246L182.84 670.246L182.61 673.986L182.06 682.986L181.82 686.726L181.26 695.726L174.94 797.796C174.665 802.188 172.728 806.31 169.521 809.323C166.315 812.336 162.08 814.015 157.68 814.016H124.82C120.421 814.014 116.188 812.336 112.983 809.322C109.778 806.309 107.842 802.187 107.57 797.796L101.28 695.656L100.72 686.656L100.49 682.916L99.93 673.916L99.7 670.176L99.14 661.176L98.74 654.816C98.6706 653.592 98.8519 652.367 99.273 651.215C99.6941 650.064 100.346 649.01 101.189 648.12C102.032 647.229 103.047 646.52 104.174 646.037C105.3 645.553 106.514 645.304 107.74 645.306H174.95C176.171 645.317 177.378 645.577 178.495 646.072C179.611 646.567 180.615 647.285 181.443 648.183C182.272 649.081 182.907 650.139 183.311 651.292C183.714 652.444 183.878 653.668 183.79 654.886V654.886Z" fill="#3F3D56"/>
<path d="M183.4 661.247L182.84 670.217H99.6601L99.1001 661.247H183.4Z" fill="#9D9CB5"/>
<path d="M182.61 673.957L182.06 682.937H100.45L99.8901 673.957H182.61Z" fill="#9D9CB5"/>
<path d="M181.82 686.687L181.27 695.657H101.24L100.68 686.687H181.82Z" fill="#9D9CB5"/>
<path d="M89.5298 567.056C126.04 593.476 141.28 634.796 141.28 634.796C141.28 634.796 97.2798 633.286 60.7598 606.866C24.2398 580.446 9.02979 539.136 9.02979 539.136C9.02979 539.136 53.0098 540.636 89.5298 567.056Z" fill="#6C63FF"/>
<path d="M9 539.136C9 539.136 54.68 564.486 69.33 585.476C83.98 606.466 141.28 634.796 141.28 634.796" stroke="#535461" stroke-width="2" stroke-miterlimit="10"/>
<path d="M113.1 513.836C132.97 528.206 141.28 550.696 141.28 550.696C141.28 550.696 117.33 549.876 97.4498 535.506C77.5698 521.136 69.2798 498.636 69.2798 498.636C69.2798 498.636 93.2198 499.456 113.1 513.836Z" fill="#6C63FF"/>
<path d="M69.2798 498.636C69.2798 498.636 94.1398 512.436 102.11 523.856C110.08 535.276 141.28 550.696 141.28 550.696" stroke="#535461" stroke-width="2" stroke-miterlimit="10"/>
<path d="M170.13 549.556C147.3 574.646 142.47 607.436 142.47 607.436C142.47 607.436 174.66 599.536 197.47 574.436C220.28 549.336 225.13 516.556 225.13 516.556C225.13 516.556 192.96 524.466 170.13 549.556Z" fill="#6C63FF"/>
<path d="M225.15 516.566C225.15 516.566 195.41 542.286 187.85 560.006C180.29 577.726 142.47 607.436 142.47 607.436" stroke="#535461" stroke-width="2" stroke-miterlimit="10"/>
<path d="M1008.19 540.727C1008.19 540.727 991.68 458.587 998 448.367C998 448.367 998.23 438.867 997.85 426.757C997.85 426.297 997.85 425.837 997.85 425.367C998.962 426.108 1000.12 426.776 1001.32 427.367C1007.14 430.358 1013.83 431.221 1020.22 429.807L1015.22 424.237C1014.02 422.907 1012.77 421.467 1012.51 419.707C1012.25 417.947 1012.97 416.377 1013.59 414.807C1018.34 402.807 1018.59 387.717 1009.44 378.557C1001.71 370.857 999.83 360.917 991.44 353.887C985.31 348.737 981.94 341.187 978.76 333.887C976.07 327.717 973.36 321.497 971.82 314.957C970.62 309.847 970.14 304.557 968.49 299.567C966.84 294.577 963.75 289.727 958.92 287.497C957.2 286.707 955.29 286.257 953.72 285.207C951.66 283.817 950.42 281.557 948.93 279.577C941.36 269.577 916.01 275.467 904.01 279.527C900.748 280.549 897.727 282.223 895.13 284.447L895.24 284.267C895.33 284.117 895.44 283.967 895.54 283.817C894.227 284.879 893.092 286.145 892.18 287.567C890.43 290.337 889.7 293.567 888.24 296.567C886.48 300.117 876.69 310.027 880.9 314.017C881.195 314.285 881.533 314.501 881.9 314.657C883.48 315.314 885.221 315.488 886.9 315.157L886.72 315.587C885.282 319.107 884.545 322.874 884.55 326.677C884.55 343.107 898.1 356.427 914.83 356.427C917.975 356.43 921.102 355.947 924.1 354.997C924.17 355.377 924.23 355.757 924.3 356.137C924.3 356.287 924.35 356.437 924.37 356.587L923.84 357.327C923.814 357.281 923.783 357.237 923.75 357.197L908.05 379.137C905.65 380.827 891.83 390.827 891.05 398.327C890.23 406.537 889.41 416.147 889.41 416.147L889.3 418.207C888.614 418.78 887.811 419.197 886.948 419.431C886.085 419.664 885.182 419.707 884.3 419.557C879.4 418.757 879.4 437.557 879.4 437.557C879.4 437.557 876.14 440.557 873.9 437.957C871.66 435.357 865.74 444.167 865.74 444.167L828.64 445.767L827.79 445.817L825.79 439.627C825.575 438.974 825.111 438.432 824.498 438.119C823.886 437.807 823.175 437.748 822.52 437.957C822.365 438.008 822.215 438.071 822.07 438.147L821.93 438.227L821.67 438.407L821.54 438.527C821.468 438.592 821.402 438.662 821.34 438.737L821.22 438.877L821.16 438.937C820.929 439.256 820.776 439.625 820.714 440.014C820.651 440.403 820.681 440.801 820.8 441.177L822.52 446.487C815.36 447.927 808.04 451.987 814.01 463.167L783.75 457.577L793.54 465.797L844.08 476.227C843.41 477.427 843.85 479.167 845.94 481.617C854.94 492.187 871.34 495.057 877.94 495.797C879.683 499.695 881.86 503.385 884.43 506.797L883.86 517.327C883.86 517.327 867.15 597.587 864.09 601.657C865.635 599.906 867.049 598.044 868.32 596.087C863.47 612.577 856.69 635.147 854.91 638.527C852.05 643.927 849.4 665.777 852.66 667.177C853.66 667.607 856.52 667.397 860.6 667.087V668.897L860.42 737.487C860.42 737.487 861.24 779.557 858.99 783.567C856.74 787.577 856.14 795.987 856.14 795.987C856.14 795.987 847.14 812.577 840.01 819.247C839.961 819.298 839.908 819.345 839.85 819.387L839.63 817.827C839.63 817.827 831.06 828.646 812.1 828.036C812.1 828.036 800.69 835.457 817.61 835.857C834.53 836.257 856.14 835.257 856.14 835.257C856.14 835.257 871.23 812.257 883.87 815.257V832.687H887.74V814.977C889.535 813.795 891.071 812.261 892.255 810.468C893.44 808.676 894.247 806.661 894.63 804.547C894.961 802.367 894.719 800.139 893.926 798.082C893.133 796.025 891.818 794.21 890.11 792.817C889.343 792.123 888.727 791.278 888.302 790.335C887.877 789.392 887.652 788.371 887.64 787.337L887.5 787.457C887.5 787.107 887.41 786.747 887.37 786.377C886.26 777.377 884.87 758.807 889.78 745.067C896.51 726.227 898.55 699.987 893.65 684.367C892.069 679.374 890.77 674.296 889.76 669.157C889.64 668.507 889.53 667.887 889.43 667.307C892.779 667.76 896.096 668.428 899.36 669.307C910.71 672.437 935.54 673.016 956.74 672.846C956.79 673.426 956.85 674.037 956.92 674.647C957.298 678.887 958.088 683.08 959.28 687.167C961.94 695.167 963.16 730.437 963.16 730.437C963.16 730.437 966.59 759.437 964.72 771.237C963.72 777.797 962.72 784.387 962.15 791.007V791.137C962.15 791.137 956.53 807.137 952.42 815.827C952.32 816.047 952.21 816.267 952.11 816.477C951.014 816.576 949.936 816.815 948.9 817.187C948.9 817.187 943.39 828.187 937.9 830.007C932.41 831.827 934.23 837.817 946.66 835.617C959.09 833.417 977.86 831.617 977.86 831.617L978.67 820.397L982.49 815.617L981.49 826.807L985.56 826.007L985.02 812.397L991.27 804.577C991.27 804.577 998.82 797.857 987.6 784.637V784.927C987.48 784.737 987.37 784.536 987.24 784.346V784.286C985.38 781.406 983.9 776.037 986.61 766.507C991.51 749.287 994.36 733.657 994.36 733.657C994.36 733.657 1005.3 691.787 992.15 671.977H992.73C991.382 669.189 990.43 666.227 989.9 663.177C989.833 662.817 989.773 662.447 989.72 662.067C999.45 661.507 1009 659.747 1016.79 655.947C1016.76 655.907 1012.07 556.547 1008.19 540.727ZM884.66 471.427V471.627L882.66 471.727L884.66 471.427ZM877.8 472.377C877.471 472.449 877.163 472.596 876.9 472.807C876.04 474.023 875.5 475.437 875.33 476.917L872.21 476.217C872.21 476.217 870.02 475.747 866.87 475.217L865.38 473.717C869.48 473.377 873.74 472.877 877.8 472.377V472.377Z" fill="url(#paint1_linear)"/>
<path d="M981.03 812.537L979.84 826.707L983.83 825.907L983.23 810.537L981.03 812.537Z" fill="#1D2366"/>
<path d="M890 745.256C885.19 758.956 886.55 777.446 887.63 786.426C888.03 789.746 888.4 791.766 888.4 791.766C888.4 791.766 881.21 808.146 880.61 808.766C880.01 809.386 859.45 821.936 859.45 821.936L845.08 830.326C845.08 830.326 830.5 823.936 837.49 821.736C838.918 821.163 840.205 820.286 841.26 819.166C848.26 812.516 857.05 795.986 857.05 795.986C857.05 795.986 857.65 787.596 859.85 783.606C862.05 779.616 861.25 737.686 861.25 737.686L861.42 669.336V660.426L888.77 660.626C888.942 663.651 889.337 666.659 889.95 669.626C890.932 674.748 892.204 679.809 893.76 684.786C898.58 700.376 896.58 726.486 890 745.256Z" fill="#FFB0B1"/>
<path opacity="0.1" d="M888.4 791.766C888.4 791.766 881.21 808.146 880.61 808.766C880.01 809.386 859.45 821.936 859.45 821.936L845.08 830.326C845.08 830.326 830.5 823.936 837.49 821.736C838.918 821.163 840.205 820.286 841.26 819.166L841.88 823.536L846.67 823.336L887.67 786.446C888.03 789.746 888.4 791.766 888.4 791.766Z" fill="black"/>
<path d="M887.9 787.376L846.67 824.516L841.88 824.716L840.88 817.716C840.88 817.716 832.5 828.496 813.88 827.896C813.88 827.896 802.7 835.286 819.27 835.686C835.84 836.086 857 835.086 857 835.086C857 835.086 871.78 812.086 884.15 815.086V832.456H887.95V814.926C889.717 813.737 891.225 812.203 892.383 810.415C893.541 808.628 894.326 806.625 894.69 804.526C895.019 802.365 894.786 800.155 894.014 798.109C893.242 796.064 891.956 794.251 890.28 792.846C889.532 792.145 888.935 791.298 888.525 790.357C888.116 789.417 887.903 788.402 887.9 787.376V787.376Z" fill="#1D2366"/>
<path d="M984.83 766.616C982.17 776.116 983.62 781.466 985.44 784.336V784.396C987.774 787.94 989.398 791.904 990.22 796.066L990.38 796.966L971.62 824.316L961.44 828.316C961.44 828.316 945.07 822.726 948.06 821.126C948.81 820.736 949.98 818.656 951.32 815.786C955.32 807.136 960.84 791.176 960.84 791.176V791.046C961.42 784.456 962.34 777.886 963.36 771.346C965.19 759.576 961.83 730.686 961.83 730.686C961.83 730.686 960.63 695.556 958.03 687.566C956.856 683.504 956.076 679.338 955.7 675.126C955.16 670.126 955.04 666.006 955.04 666.006C955.04 666.006 965.82 651.006 985.58 667.206C987.16 668.499 988.551 670.007 989.71 671.686C1003.36 691.106 992.37 733.886 992.37 733.886C992.37 733.886 989.62 749.446 984.83 766.616Z" fill="#FFB0B1"/>
<path opacity="0.1" d="M990.41 796.966L971.65 824.316L961.47 828.316C961.47 828.316 945.1 822.726 948.09 821.126C948.84 820.736 950.01 818.656 951.35 815.786C958.28 815.726 961.87 822.326 961.87 822.326L970.65 820.926C970.65 820.926 982.23 798.166 984.83 796.776C987.43 795.386 985.23 786.386 985.23 786.386V784.096C985.3 784.176 985.36 784.266 985.44 784.346V784.406C987.774 787.95 989.398 791.913 990.22 796.076L990.41 796.966Z" fill="black"/>
<path d="M962.47 822.916C962.47 822.916 957.47 813.736 947.89 817.126C947.89 817.126 942.5 828.126 937.11 829.906C931.72 831.686 933.52 837.686 945.7 835.496C957.88 833.306 976.24 831.496 976.24 831.496L977.04 820.306L989.42 804.536C989.42 804.536 996.8 797.846 985.82 784.676V786.966C985.82 786.966 988.02 795.966 985.42 797.356C982.82 798.746 971.28 821.516 971.28 821.516L962.47 822.916Z" fill="#1D2366"/>
<path opacity="0.1" d="M888.8 660.606C888.972 663.631 889.367 666.639 889.98 669.606C878.72 667.956 868.27 668.776 861.42 669.316V660.406L888.8 660.606Z" fill="black"/>
<path opacity="0.1" d="M990.82 674.176C990.82 674.176 974.82 674.956 955.74 675.116C955.2 670.116 955.08 665.996 955.08 665.996C955.08 665.996 965.86 650.996 985.62 667.196C987.2 668.488 988.591 669.996 989.75 671.676C990.06 672.529 990.417 673.363 990.82 674.176V674.176Z" fill="black"/>
<path d="M990.82 672.376C990.82 672.376 920.74 675.766 899.38 669.776C878.02 663.786 856.85 668.976 853.66 667.586C850.47 666.196 853.06 644.426 855.86 639.036C858.66 633.646 874.02 579.136 874.02 579.136L888.8 502.076L904.37 497.786L905.47 497.476L932.6 489.996L952.48 484.506C952.48 484.506 992.01 638.836 988.62 650.216C987.389 654.574 987.19 659.159 988.04 663.606C988.558 666.644 989.493 669.595 990.82 672.376V672.376Z" fill="#1D2366"/>
<path d="M837.28 449.376C837.28 449.376 823.28 464.376 833.88 472.736C844.48 481.096 851.45 473.536 851.45 473.536L837.28 449.376Z" fill="#C7DAF5"/>
<path opacity="0.1" d="M837.28 449.376C837.28 449.376 823.28 464.376 833.88 472.736C844.48 481.096 851.45 473.536 851.45 473.536L837.28 449.376Z" fill="black"/>
<path d="M950.39 350.756C950.39 350.756 948.75 352.316 946.28 354.616C942.76 357.906 937.55 362.716 932.93 366.746C926.53 372.316 921.25 376.406 923.14 372.916C925.03 369.426 924.67 363.346 923.73 357.656C923.66 357.276 923.6 356.896 923.53 356.526C922.752 352.348 921.72 348.22 920.44 344.166C920.44 344.166 930.78 330.806 936.5 325.536C938.63 323.536 940.12 322.716 940.21 324.106C940.31 325.976 941.71 330.106 943.45 334.486C943.5 334.626 943.55 334.756 943.61 334.896C944.77 337.896 946.08 340.976 947.23 343.636C948.99 347.716 950.39 350.756 950.39 350.756Z" fill="#FFB0B1"/>
<path opacity="0.1" d="M943.61 334.896C942.638 340.123 940.281 344.992 936.784 348.996C933.286 353 928.778 355.991 923.73 357.656C922.935 353.091 921.836 348.585 920.44 344.166C920.44 344.166 939.91 319.016 940.21 324.106C940.28 326.036 941.8 330.316 943.61 334.896Z" fill="black"/>
<path opacity="0.1" d="M921.79 364.376L924.31 360.826C924.31 360.826 925.98 371.006 932.12 366.516C938.26 362.026 938.56 400.306 938.56 400.306L931.97 498.836L884.35 495.986L885.7 448.376L891.09 424.376L904.42 389.486L912.35 377.956L921.79 364.376Z" fill="black"/>
<path d="M938.56 400.916L932.56 490.006L931.93 499.446L905.38 497.856L904.38 497.796L884.38 496.596L885.73 448.976L891.12 424.976L904.45 390.086L912.38 378.556L921.82 364.926L924.34 361.386C924.34 361.386 926.01 371.566 932.15 367.076L932.28 366.986C938.28 363.186 938.56 400.916 938.56 400.916Z" fill="#1D2366"/>
<path d="M891.79 416.636C891.79 416.636 889.4 421.636 884.6 420.826C879.8 420.016 879.81 438.826 879.81 438.826C879.81 438.826 876.62 441.826 874.42 439.226C872.22 436.626 866.42 445.416 866.42 445.416L830.08 447.016C830.08 447.016 846.25 454.406 843.08 476.766C843.08 476.766 897.98 473.366 899.78 468.176C901.58 462.986 891.79 416.636 891.79 416.636Z" fill="white"/>
<path opacity="0.03" d="M891.79 416.636C891.79 416.636 889.4 421.636 884.6 420.826C879.8 420.016 879.81 438.826 879.81 438.826C879.81 438.826 876.62 441.826 874.42 439.226C872.22 436.626 866.42 445.416 866.42 445.416L830.08 447.016C830.08 447.016 846.25 454.406 843.08 476.766C843.08 476.766 897.98 473.366 899.78 468.176C901.58 462.986 891.79 416.636 891.79 416.636Z" fill="black"/>
<path d="M786.18 458.766L795.76 466.946L874.62 483.516L864.84 473.536L786.18 458.766Z" fill="white"/>
<path d="M921.94 367.526C920.63 369.526 916.88 379.766 913.75 388.706C911.14 396.156 908.96 402.706 908.96 402.706C908.96 402.706 903.87 435.846 901.27 441.836C898.67 447.826 900.08 471.186 900.08 471.186L890.39 528.876C890.39 528.876 886 558.626 879.22 576.396C872.53 593.886 865.08 602.086 864.85 602.346C867.85 598.286 884.2 518.346 884.2 518.346L889.6 417.526C889.6 417.526 890.39 407.946 891.19 399.756C891.99 391.566 908.19 380.386 908.19 380.386L923.81 358.176C925.38 360.276 924.33 363.936 921.94 367.526Z" fill="white"/>
<path d="M881.21 497.096C881.21 497.096 858.21 496.096 847.07 482.716C835.93 469.336 872.82 477.376 872.82 477.376L882.41 479.576L881.21 497.096Z" fill="#FFB0B1"/>
<path opacity="0.1" d="M988.62 650.226C987.389 654.584 987.19 659.169 988.04 663.616C962.95 665.396 936.11 658.616 936.11 658.616C931.11 663.216 917.94 669.996 917.94 669.996L910.76 580.996C906.17 568.996 904.37 506.126 904.37 506.126C904.37 506.126 904.78 502.836 905.37 497.906C905.37 497.786 905.37 497.656 905.42 497.536C907.21 483.766 910.76 457.916 912.5 454.426C914.9 449.626 905.12 436.856 905.12 436.856L909.57 398.906L910.11 394.326C919.49 390.136 926.68 376.756 926.68 376.756L932.2 367.086C938.2 363.236 938.51 400.966 938.51 400.966L932.51 490.056L952.39 484.566C952.39 484.566 992.01 638.846 988.62 650.226Z" fill="black"/>
<path d="M1014.37 656.377C987.02 669.957 937.31 657.377 937.31 657.377C932.31 661.977 919.14 668.757 919.14 668.757L911.95 579.757C907.37 567.757 905.57 504.887 905.57 504.887C905.57 504.887 911.35 457.977 913.75 453.187C914.45 451.787 914.11 449.707 913.28 447.467C909.199 436.805 907.698 425.329 908.9 413.977L910.82 397.667L911.35 393.097C920.74 388.897 927.93 375.517 927.93 375.517L932.93 366.757L942.13 350.617L946.49 342.977L947.23 343.647L952.88 348.767C952.88 348.767 955.28 350.767 958.88 353.767C966.71 360.367 980.24 371.987 987.22 379.097C993.36 385.357 995.3 409.707 995.86 428.037C996.23 440.107 996.01 449.567 996.01 449.567C989.82 459.757 1006.01 541.567 1006.01 541.567C1009.78 557.377 1014.37 656.377 1014.37 656.377Z" fill="white"/>
<path opacity="0.03" d="M961.87 375.316C961.87 375.316 943.1 411.046 945.28 424.626C947.46 438.206 953.66 453.576 950.67 457.166C949.643 458.526 948.315 459.63 946.79 460.392C945.265 461.154 943.585 461.552 941.88 461.556C938.88 461.756 930.88 467.346 930.88 467.946C930.88 468.546 923.49 468.546 916.88 471.346C910.27 474.146 900.51 475.736 900.51 475.736C900.51 475.736 881.51 475.136 879.74 476.936C877.97 478.736 876.15 489.506 879.94 498.096C883.73 506.686 887.94 513.096 891.12 514.266C894.3 515.436 914.48 508.676 930.85 507.076C947.22 505.476 964.99 492.506 964.99 492.506C964.99 492.506 984.56 485.506 987.99 473.736C991.42 461.966 983.8 397.276 983.8 397.276C983.8 397.276 978.04 367.126 961.87 375.316Z" fill="black"/>
<path opacity="0.03" d="M959.47 372.316C959.47 372.316 940.7 408.056 942.9 421.626C945.1 435.196 951.28 450.576 948.28 454.176C947.256 455.538 945.931 456.643 944.407 457.405C942.883 458.167 941.204 458.564 939.5 458.566C936.5 458.766 928.5 464.356 928.5 464.956C928.5 465.556 921.11 465.556 914.5 468.346C907.89 471.136 898.13 472.736 898.13 472.736C898.13 472.736 879.13 472.136 877.37 473.936C875.61 475.736 873.77 486.516 877.57 495.096C881.37 503.676 885.57 510.096 888.75 511.266C891.93 512.436 912.11 505.676 928.48 504.086C944.85 502.496 962.62 489.506 962.62 489.506C962.62 489.506 982.18 482.506 985.57 470.746C988.96 458.986 981.38 394.276 981.38 394.276C981.38 394.276 975.64 364.136 959.47 372.316Z" fill="black"/>
<path d="M961.28 373.516C961.28 373.516 942.51 409.256 944.71 422.826C946.91 436.396 953.09 451.776 950.1 455.366C949.076 456.731 947.749 457.839 946.224 458.603C944.698 459.366 943.016 459.765 941.31 459.766C938.31 459.966 930.31 465.556 930.31 466.146C930.31 466.736 922.93 466.746 916.31 469.546C909.69 472.346 899.94 473.936 899.94 473.936C899.94 473.936 880.94 473.336 879.17 475.136C877.4 476.936 875.58 487.716 879.37 496.296C883.16 504.876 887.37 511.296 890.55 512.466C893.73 513.636 913.91 506.876 930.28 505.276C946.65 503.676 964.42 490.706 964.42 490.706C964.42 490.706 983.99 483.706 987.42 471.936C990.85 460.166 983.28 395.476 983.28 395.476C983.28 395.476 977.44 365.376 961.28 373.516Z" fill="white"/>
<path opacity="0.1" d="M960.87 469.376C960.87 469.376 945.87 466.376 951.09 471.376C956.31 476.376 956.28 480.756 962.67 480.556C969.06 480.356 960.87 469.376 960.87 469.376Z" fill="black"/>
<path opacity="0.1" d="M986.22 576.957C986.22 576.957 979.44 581.547 992.41 592.127C1005.38 602.707 986.22 576.957 986.22 576.957Z" fill="black"/>
<path opacity="0.1" d="M973.28 614.687C973.28 615.287 970.88 636.686 979.86 642.036C988.84 647.386 973.28 614.687 973.28 614.687Z" fill="black"/>
<path d="M830.7 446.966C823.46 447.216 807.82 449.426 815.93 464.556C823.1 477.946 835.15 468.996 841.93 462.206C840.276 455.876 836.257 450.421 830.7 446.966V446.966Z" fill="#FFB0B1"/>
<path d="M842.02 462.086L842.32 461.776L842.02 462.086Z" fill="#FFB0B1"/>
<path opacity="0.1" d="M958.88 354.376C951.2 359.626 944.76 364.056 943.5 364.976C940.06 367.526 933.5 382.496 929.27 390.136C925.9 396.286 914.95 397.866 910.82 398.256L911.35 393.686C920.74 389.486 927.93 376.106 927.93 376.106L946.49 343.566L952.88 349.376C952.88 349.376 955.28 351.376 958.88 354.376Z" fill="black"/>
<path d="M958.88 353.776C951.2 359.026 944.76 363.456 943.5 364.386C940.06 366.926 933.5 381.896 929.27 389.536C925.9 395.686 914.95 397.266 910.82 397.656L911.35 393.086C920.74 388.886 927.93 375.506 927.93 375.506L946.49 342.966L952.88 348.756C952.88 348.756 955.28 350.736 958.88 353.776Z" fill="#DCE7FF"/>
<path d="M944.1 328.297C944.104 334.299 942.284 340.162 938.88 345.107C934.86 350.953 928.877 355.165 922.018 356.977C915.158 358.79 907.876 358.084 901.493 354.987C895.109 351.89 890.048 346.607 887.226 340.097C884.404 333.587 884.01 326.282 886.114 319.506C888.218 312.73 892.682 306.933 898.694 303.166C904.707 299.4 911.871 297.913 918.886 298.977C925.9 300.04 932.302 303.583 936.928 308.962C941.554 314.342 944.099 321.201 944.1 328.297V328.297Z" fill="#FFB0B1"/>
<path opacity="0.1" d="M995.86 428.046C991.799 425.548 988.492 421.995 986.29 417.766C984.62 414.466 983.51 410.656 980.66 408.316C978.09 406.216 974.66 405.706 971.46 404.766C960.94 401.656 952.12 392.056 951.79 381.096C951.63 375.936 953.24 370.786 952.51 365.676C952.095 362.784 950.945 360.047 949.17 357.726C948.289 356.616 947.323 355.576 946.28 354.616C944.88 353.296 943.41 352.016 942.13 350.616C941.324 349.749 940.619 348.793 940.03 347.766C939.555 346.926 939.169 346.037 938.88 345.116C936.88 338.996 938.7 331.736 936.5 325.546L936.38 325.206C935.55 323.006 933.86 320.806 931.51 320.636C929.16 320.466 927.15 322.416 924.91 323.286C920.22 325.106 915.16 322.006 911.25 318.846C907.34 315.686 902.93 312.076 897.96 312.776C894.67 313.246 892.07 315.486 889.04 316.646C888.356 316.911 887.65 317.115 886.93 317.256C889.494 310.861 894.206 305.559 900.255 302.26C906.303 298.962 913.312 297.872 920.077 299.18C926.841 300.487 932.94 304.11 937.324 309.425C941.708 314.74 944.104 321.416 944.1 328.306C944.104 330.387 943.886 332.462 943.45 334.496C943.5 334.636 943.55 334.766 943.61 334.906C944.77 337.906 946.08 340.986 947.23 343.646L952.88 348.766C952.88 348.766 955.28 350.766 958.88 353.766C966.71 360.366 980.24 371.986 987.22 379.096C993.36 385.376 995.28 409.716 995.86 428.046Z" fill="black"/>
<path d="M888.69 298.377C890.12 295.467 890.83 292.207 892.54 289.447C895.05 285.447 899.43 282.886 903.93 281.336C915.68 277.286 940.51 271.406 947.93 281.336C949.39 283.336 950.6 285.556 952.62 286.936C954.16 287.986 956.02 288.437 957.71 289.227C962.44 291.447 965.46 296.287 967.07 301.227C968.68 306.167 969.16 311.466 970.34 316.556C971.85 323.086 974.5 329.276 977.14 335.426C980.25 342.686 983.55 350.217 989.55 355.347C997.74 362.347 999.55 372.257 1007.15 379.937C1016.15 389.057 1015.86 404.106 1011.22 416.056C1010.61 417.626 1009.92 419.266 1010.16 420.936C1010.4 422.606 1011.64 424.126 1012.81 425.456L1017.73 431.007C1006.09 433.817 992.92 427.736 987.5 417.066C985.83 413.766 984.72 409.966 981.86 407.616C979.3 405.516 975.86 405.017 972.67 404.077C962.15 400.957 953.33 391.347 953 380.387C952.84 375.237 954.45 370.086 953.72 364.986C953.314 362.075 952.16 359.319 950.37 356.986C947.62 353.396 943.47 350.986 941.23 346.986C937.44 340.296 940.32 331.606 937.59 324.426C936.75 322.226 935.07 320.027 932.72 319.857C930.37 319.687 928.36 321.637 926.11 322.507C921.43 324.327 916.37 321.237 912.46 318.067C908.55 314.897 904.14 311.297 899.16 312.007C895.87 312.467 893.28 314.706 890.25 315.876C888.01 316.736 883.47 317.506 881.51 315.616C877.37 311.806 886.96 301.937 888.69 298.377Z" fill="#591D4B"/>
<path opacity="0.1" d="M990.28 413.766C988.6 410.466 987.5 406.666 984.64 404.326C982.08 402.226 978.64 401.716 975.44 400.776C964.93 397.666 956.11 388.056 955.77 377.096C955.61 371.946 957.22 366.786 956.5 361.686C956.081 358.794 954.928 356.057 953.15 353.736C950.39 350.146 946.24 347.736 944.01 343.736C940.22 337.056 943.1 328.366 940.36 321.176C939.53 318.986 937.84 316.786 935.5 316.606C933.16 316.426 931.13 318.396 928.89 319.266C924.21 321.086 919.14 317.986 915.24 314.826C911.34 311.666 906.91 308.056 901.94 308.756C898.65 309.226 896.05 311.466 893.03 312.626C890.79 313.486 886.24 314.266 884.28 312.376C880.16 308.376 889.75 298.526 891.47 294.986C892.9 292.066 893.61 288.816 895.33 286.056C895.42 285.906 895.52 285.756 895.62 285.606C894.333 286.672 893.223 287.934 892.33 289.346C890.62 292.106 889.91 295.346 888.48 298.276C886.75 301.816 877.16 311.696 881.29 315.666C883.29 317.566 887.79 316.786 890.03 315.926C893.03 314.756 895.65 312.516 898.94 312.056C903.94 311.346 908.34 314.956 912.24 318.116C916.14 321.276 921.24 324.376 925.9 322.556C928.14 321.686 930.1 319.726 932.5 319.906C934.9 320.086 936.5 322.276 937.37 324.476C940.1 331.656 937.22 340.346 941.01 347.036C943.25 350.966 947.4 353.426 950.15 357.036C951.94 359.369 953.094 362.125 953.5 365.036C954.23 370.136 952.62 375.286 952.78 380.436C953.11 391.436 961.93 401.006 972.45 404.126C975.62 405.066 979.08 405.566 981.64 407.666C984.51 410.016 985.64 413.816 987.28 417.116C992.7 427.786 1005.87 433.866 1017.51 431.056L1015.19 428.436C1005.1 428.586 994.89 422.846 990.28 413.766Z" fill="black"/>
<path opacity="0.1" d="M921.34 368.126C920.03 370.126 916.28 380.366 913.15 389.306C910.22 388.166 907.56 380.896 907.56 380.896L923.18 358.676C924.78 360.876 923.73 364.526 921.34 368.126Z" fill="black"/>
<path d="M921.94 367.526C920.63 369.526 916.88 379.766 913.75 388.706C910.82 387.576 908.16 380.296 908.16 380.296L923.78 358.086C925.38 360.276 924.33 363.936 921.94 367.526Z" fill="#DCE7FF"/>
<path d="M831.12 469.686L822.46 442.376C822.358 442.056 822.319 441.72 822.347 441.385C822.375 441.05 822.469 440.725 822.623 440.426C822.778 440.128 822.989 439.863 823.246 439.647C823.503 439.431 823.8 439.267 824.12 439.166V439.166C824.765 438.965 825.463 439.026 826.062 439.337C826.661 439.648 827.113 440.183 827.32 440.826L835.98 468.106L835.12 473.816L831.12 469.686Z" fill="#BE8B87"/>
<path opacity="0.1" d="M823.28 439.976C823.926 439.772 824.626 439.832 825.228 440.143C825.83 440.454 826.283 440.991 826.49 441.636L835.15 468.916L834.5 473.196L835.13 473.856L835.99 468.146L827.28 440.866C827.073 440.223 826.621 439.688 826.022 439.377C825.422 439.067 824.725 439.005 824.08 439.206V439.206C823.538 439.382 823.07 439.734 822.75 440.206C822.92 440.115 823.097 440.038 823.28 439.976V439.976Z" fill="white"/>
<path d="M831.12 469.686L835.98 468.146L835.27 472.826L835.12 473.856L833.7 472.376L831.12 469.686Z" fill="#EFC8C4"/>
<path d="M833.7 472.376C833.785 472.269 833.89 472.181 834.01 472.116C834.081 472.072 834.162 472.048 834.245 472.048C834.328 472.048 834.41 472.072 834.48 472.116C834.548 472.199 834.605 472.289 834.65 472.386C834.716 472.497 834.806 472.591 834.914 472.662C835.021 472.733 835.143 472.779 835.27 472.796L835.12 473.796L833.7 472.376Z" fill="#727A9C"/>
<path d="M822.41 452.076C822.41 452.076 839.78 451.976 835.69 459.366C831.6 466.756 825.21 467.646 825.21 467.646L822.41 452.076Z" fill="#FFB0B1"/>
<path d="M714.38 120.426H713.63C683.79 120.426 657.4 136.216 642.22 159.516C627.04 136.216 600.65 120.426 570.81 120.426H570.06C547.666 120.64 526.261 129.682 510.497 145.589C494.732 161.496 485.882 182.981 485.87 205.376C485.87 233.186 498.05 272.646 521.8 305.116C567.05 366.986 642.22 421.116 642.22 421.116C642.22 421.116 717.39 366.996 762.63 305.116C786.39 272.646 798.56 233.186 798.56 205.376C798.548 182.983 789.699 161.499 773.937 145.592C758.175 129.686 736.772 120.642 714.38 120.426V120.426ZM703.65 309.876C700.252 309.863 696.937 308.823 694.14 306.892C691.344 304.961 689.196 302.23 687.98 299.056H670.14C668.965 299.049 667.822 298.675 666.87 297.987C665.918 297.298 665.205 296.33 664.83 295.216L659.35 278.706L642.01 339.296C641.672 340.463 640.965 341.488 639.995 342.218C639.025 342.949 637.844 343.344 636.63 343.346H636.28C635.013 343.285 633.806 342.791 632.859 341.946C631.913 341.102 631.285 339.958 631.08 338.706L613.21 231.226L600.15 294.826C599.851 296.034 599.155 297.108 598.175 297.874C597.194 298.641 595.985 299.057 594.74 299.056H569.61C568.857 299.088 568.105 298.967 567.399 298.701C566.694 298.435 566.05 298.028 565.505 297.507C564.961 296.985 564.528 296.358 564.232 295.665C563.936 294.971 563.784 294.225 563.784 293.471C563.784 292.717 563.936 291.971 564.232 291.278C564.528 290.584 564.961 289.958 565.505 289.436C566.05 288.914 566.694 288.508 567.399 288.242C568.105 287.975 568.857 287.854 569.61 287.886H590.34L608.84 202.376C609.144 201.112 609.877 199.993 610.915 199.209C611.953 198.426 613.23 198.027 614.529 198.082C615.828 198.136 617.068 198.64 618.037 199.507C619.006 200.374 619.643 201.551 619.84 202.836L638.09 312.476L653.63 258.266C653.954 257.125 654.638 256.118 655.58 255.397C656.523 254.676 657.674 254.28 658.86 254.266H658.97C660.145 254.267 661.29 254.638 662.242 255.328C663.194 256.017 663.904 256.99 664.27 258.106L674.18 287.916H687.76C688.726 284.983 690.483 282.373 692.838 280.376C695.193 278.378 698.054 277.07 701.105 276.595C704.157 276.121 707.28 276.499 710.131 277.687C712.981 278.876 715.447 280.829 717.258 283.331C719.068 285.833 720.152 288.786 720.39 291.865C720.628 294.944 720.011 298.029 718.606 300.779C717.201 303.53 715.064 305.838 712.43 307.451C709.796 309.063 706.768 309.916 703.68 309.916L703.65 309.876Z" fill="#6C63FF"/>
</g>
<defs>
<linearGradient id="paint0_linear" x1="364.85" y1="843.876" x2="364.85" y2="228.536" gradientUnits="userSpaceOnUse">
<stop stop-color="#808080" stop-opacity="0.25"/>
<stop offset="0.54" stop-color="#808080" stop-opacity="0.12"/>
<stop offset="1" stop-color="#808080" stop-opacity="0.1"/>
</linearGradient>
<linearGradient id="paint1_linear" x1="223224" y1="464351" x2="223224" y2="148492" gradientUnits="userSpaceOnUse">
<stop stop-color="#808080" stop-opacity="0.25"/>
<stop offset="0.54" stop-color="#808080" stop-opacity="0.12"/>
<stop offset="1" stop-color="#808080" stop-opacity="0.1"/>
</linearGradient>
<clipPath id="clip0">
<rect width="1121.04" height="851.8" fill="white"/>
</clipPath>
</defs>
</svg>
